<?xml version="1.0" encoding="UTF-8" standalone="no"?>
<!--part of the matt icon theme by sixsixfive released under CC0 (https://creativecommons.org/publicdomain/zero/1.0/) on openclipart-->
<svg xmlns="http://www.w3.org/2000/svg" xmlns:xlink="http://www.w3.org/1999/xlink" viewBox="0 0 128 128">
 <defs id="0">
  <linearGradient id="2">
   <stop id="F" stop-color="#e85752"/>
   <stop id="G" offset="1" stop-color="#bf0303"/>
  </linearGradient>
  <linearGradient id="3">
   <stop id="H" stop-color="#eee"/>
   <stop id="I" offset="1" stop-color="#eee" stop-opacity="0"/>
  </linearGradient>
  <radialGradient cx="60.05" cy="51.39" r="15.03" id="4" xlink:href="#5" gradientUnits="userSpaceOnUse" gradientTransform="matrix(-1.404511,1.1888571,-0.99999995,-1.1813958,199.73811,11.750541)"/>
  <linearGradient id="5">
   <stop id="J" stop-color="#eee"/>
   <stop id="K" offset="1" stop-color="#dcdcdc"/>
  </linearGradient>
  <linearGradient id="6">
   <stop id="L"/>
   <stop id="M" offset="1" stop-opacity="0"/>
  </linearGradient>
  <radialGradient cx="63.894" cy="117.35" r="53.91" id="7" xlink:href="#6" gradientUnits="userSpaceOnUse" gradientTransform="matrix(1,0,0,0.08641975,0,107.20963)"/>
  <radialGradient cx="-64" cy="148.57" r="38.946" id="8" xlink:href="#5" gradientUnits="userSpaceOnUse" gradientTransform="matrix(-0.1431461,1.0007028,1.3977065,-0.1727501,-122.23466,120.83835)"/>
  <radialGradient cx="56.36" cy="-9.08" r="53.978" id="9" xlink:href="#3" gradientUnits="userSpaceOnUse" gradientTransform="matrix(2.6007444,1.3823223e-8,0,1.5194069,-82.575913,-12.31371)"/>
  <linearGradient y1="3.934" x2="0" y2="119.48" id="A" xlink:href="#2" gradientUnits="userSpaceOnUse"/>
 </defs>
 <g id="1">
  <path d="m 117.80366,117.35108 a 53.91015,4.6589018 0 1 1 -107.8202997,0 53.91015,4.6589018 0 1 1 107.8202997,0 z" transform="matrix(0.9959972,0,0,1.0251419,0.3622422,-1.0115321)" id="B" opacity="0.443" fill="url(#7)"/>
  <path d="m 42.07789,5.6238178 44.562385,0 33.440815,34.1533582 0,46.670721 -32.990438,31.342823 -45.462309,0 -33.7094359,-33.486178 0,-44.846371 34.1589829,-33.8343532 0,0 z" id="C" fill="url(#A)" fill-rule="evenodd" stroke="#9c0f0f" stroke-width="3.38"/>
  <path d="m 37.187477,40.801629 c -1.492502,1.492501 -1.492502,3.913795 0,5.406297 L 52.680524,61.700971 37.187477,77.194018 c -1.492498,1.492499 -1.492502,3.913796 0,5.406298 l 5.93191,5.931908 c 1.4925,1.492502 3.888768,1.467469 5.381267,-0.02503 L 63.993701,73.014149 79.511776,88.532224 c 1.492501,1.492502 3.888766,1.467473 5.381268,-0.02503 l 5.90688,-5.90688 c 1.492501,-1.492501 1.51753,-3.888765 0.02503,-5.381268 L 75.306877,61.700971 90.799924,46.207926 c 1.492501,-1.492502 1.51753,-3.888767 0.02503,-5.381267 l -5.931909,-5.93191 c -1.492502,-1.492502 -3.913796,-1.492502 -5.406297,0 L 63.993701,50.387795 48.500654,34.894749 c -1.492501,-1.492502 -3.913796,-1.492502 -5.406298,0 l -5.906879,5.90688 0,0 z" id="D" fill="url(#8)"/>
  <path d="M 43.34375,8.78125 11.0625,40.75 l 0,42.28125 31.84375,31.59375 42.9375,0 31.09375,-29.53125 0,-44.0625 -31.625,-32.25 -41.96875,0 z" id="E" fill="none" stroke="url(#9)" stroke-width="2.08"/>
 </g>
</svg>
