<?xml version="1.0" encoding="UTF-8" standalone="no"?>
<!--part of the matt icon theme by sixsixfive released under CC0 (https://creativecommons.org/publicdomain/zero/1.0/) on openclipart-->
<svg xmlns="http://www.w3.org/2000/svg" xmlns:xlink="http://www.w3.org/1999/xlink" viewBox="0 0 128 128">
 <defs id="0">
  <linearGradient id="A">
   <stop id="Z" stop-color="#eee"/>
   <stop id="a" offset="1" stop-color="#eee" stop-opacity="0"/>
  </linearGradient>
  <linearGradient id="B">
   <stop id="b" stop-color="#3a3a3a"/>
   <stop id="c" offset="1" stop-color="#323232"/>
  </linearGradient>
  <linearGradient id="C">
   <stop id="d" stop-color="#fdfdfd"/>
   <stop id="e" offset="1" stop-color="#4a4a4a" stop-opacity="0"/>
  </linearGradient>
  <filter color-interpolation-filters="sRGB" id="D">
   <feGaussianBlur stdDeviation="3.48908" id="f"/>
  </filter>
  <linearGradient x1="184.86" y1="15.594" x2="162.14" y2="97.99" id="E" xlink:href="#C" gradientUnits="userSpaceOnUse"/>
  <radialGradient cx="111.52" cy="95.2" r="181.57" id="F" xlink:href="#B" gradientUnits="userSpaceOnUse" gradientTransform="matrix(0.3369415,0.0285584,-0.02753276,0.32484081,2.1368555,-5.6456609)"/>
  <radialGradient cx="19.682" cy="-1.514" r="57.4" id="G" xlink:href="#A" gradientUnits="userSpaceOnUse" gradientTransform="matrix(1.2375056,0.5917513,-0.156144,0.3265375,-8.5662846,-18.815863)"/>
 </defs>
 <path d="m 62.375,21.706757 c -11.264059,0.201129 -21.485278,7.597251 -24.75,18.9375 l -4.3125,15 3.90625,1.125 -0.0625,0.03125 19.5,5.8125 0.25,-0.1875 28.5625,8.21875 11.34375,3.46875 0.1875,-0.15625 36.3125,10.46875 3.5,1.03125 0.0312,-0.03125 20.5625,5.9375 -0.0312,0.03125 5.5,1.5625 33.375,9.593743 -0.0937,0.0937 14.5,4.0625 24.4375,7.03125 -0.15625,0.125 19.09375,5.375 0.0625,-0.0312 81.03125,23.3125 0,4.71875 -36.65625,0 -0.0312,-0.0312 -19.40625,0 0.0312,0.0312 -21.84375,0 -0.0312,-0.0312 -19.40625,0 0.0312,0.0312 -21.65625,0 -0.0312,-0.0312 -19.34375,0.0312 -21.4375,0.0312 0,-0.0312 -19.375,0 0,0.0312 -21.21875,0 0,-0.0312 -19.40625,0 0,0.0312 -21.09375,0 -0.03125,-0.0312 -19.375,0 0.03125,0.0312 -21.0625,0 -0.03125,-0.0312 -19.40625,0 0.03125,0.0312 -8.40625,0 0,198.53125 c 0,14.5241 11.694649,26.21875 26.21875,26.21875 l 294.03125,0 c 14.5241,0 26.21875,-11.69465 26.21875,-26.21875 l 0,-172.875 c 0.66403,-2.21271 1.03125,-4.58844 1.03125,-7.0625 l 0,-37.59375 c 0,-0.28663 -0.0217,-0.55987 -0.0312,-0.84375 0.0995,-3.21184 -0.67,-6.42298 -2.21875,-9.40625 l 0.0625,0.0312 c -0.20761,-0.4019 -0.45946,-0.79666 -0.6875,-1.1875 -1.29037,-2.37759 -2.93274,-4.47306 -4.90625,-6.125 -2.93887,-2.70622 -6.53392,-4.81323 -10.65625,-6 l -25.28125,-7.281241 0.34375,-0.28125 -12.625,-3.25 -24.9375,-7.1875 0.15625,-0.125 -5.53125,-1.40625 -33.46875,-9.625 0.21875,-0.1875 -7.8125,-2 -31.25,-9 0.28125,-0.21875 -9.9375,-2.5625 -134.9375,-38.84375 c -2.637497,-0.759303 -5.306852,-1.108914 -7.90625,-1.0625 z" transform="matrix(0.33814874,-7.5987764e-4,7.5987764e-4,0.33814874,-3.6642264,-2.5245504)" id="1" fill="#1f1f1f" filter="url(#D)"/>
 <rect width="12.976" height="27.433" ry="7.363" x="-122.64" y="32.537" transform="matrix(-0.99999748,0.00224716,0.00224716,0.99999748,0,0)" id="2" fill="#1f1f1f" rx="6.488"/>
 <path d="m 116.47523,31.679547 c 2.47976,0.707865 4.41001,2.37771 5.50254,4.481071 l -0.0182,-0.0052 c 0.75632,1.448875 0.98783,3.056415 0.54725,4.599841 -1.06981,3.74773 -5.7198,5.701681 -10.39091,4.368292 -0.0386,-0.011 -0.0751,-0.0153 -0.11178,-0.02213 L 7.6384247,15.319319 9.0871337,10.244245 C 10.435251,5.5215707 15.352367,2.8133777 20.112065,4.1720609 L 116.47525,31.679521 z" id="3" fill="url(#F)"/>
 <path d="m 5.2394257,46.30269 0.150862,67.13476 c 0.01104,4.91131 3.97379,8.85628 8.8850963,8.84526 l 99.426766,-0.22344 c 4.91132,-0.0111 8.85629,-3.97377 8.84525,-8.8851 l -0.15088,-67.144139" id="4" fill="url(#F)"/>
 <g transform="matrix(1.0813942,0.09165651,-0.09165651,1.0813942,0.240589,-5.6772749)" id="5" fill="#eee">
  <path d="m 67.650364,42.187164 -6.010749,0.532008 9.294903,11.466511 6.154577,-0.526637 -9.438734,-11.47191 3e-6,2.8e-5 z m 6.722938,-0.58504 9.304568,11.474625 6.154578,-0.526634 -9.438737,-11.47191 -6.020409,0.523904 0,1.5e-5 z m 12.796708,-1.113589 9.313464,11.473852 6.154576,-0.526634 -9.438739,-11.47191 -6.029304,0.524677 3e-6,1.5e-5 z m -75.934658,6.616892 9.303796,11.465732 6.154575,-0.526634 -9.437962,-11.463021 -6.020411,0.523907 2e-6,1.6e-5 z m 12.556602,-1.092695 9.294906,11.466508 6.154571,-0.526634 -9.43796,-11.463021 -6.011518,0.523132 1e-6,1.5e-5 z m 12.574389,-1.094243 9.303795,11.465735 6.154574,-0.526634 -9.437961,-11.463021 -6.020411,0.523905 3e-6,1.5e-5 z m 12.609958,-1.097337 9.294903,11.466511 6.154575,-0.526637 -9.437962,-11.463018 -6.011519,0.523128 3e-6,1.6e-5 z" id="H"/>
  <path d="m 95.629961,22.568598 -11.145215,11.019351 6.069603,1.150216 11.129681,-11.165467 -6.054076,-1.004059 7e-6,-4.1e-5 z" id="I"/>
  <path d="m 83.730493,20.306107 -11.145215,11.019349 6.069604,1.150219 11.129679,-11.165469 -6.054077,-1.004058 9e-6,-4.1e-5 z" id="J"/>
  <path d="m 71.390307,17.869194 -11.145221,11.019349 6.0696,1.150219 11.12968,-11.165468 -6.054071,-1.004059 1.2e-5,-4.1e-5 z" id="K"/>
  <path d="m 59.050112,15.432281 -11.145215,11.019351 6.069594,1.150217 11.129683,-11.165468 -6.054075,-1.004059 1.3e-5,-4.1e-5 z" id="L"/>
  <path d="m 46.562963,13.040945 -11.261154,10.900842 6.057093,1.214356 11.247164,-11.047116 -6.043113,-1.068041 1e-5,-4.1e-5 z" id="M"/>
  <path d="m 33.972805,10.660736 -11.380954,10.775701 6.043299,1.281233 11.368585,-10.922121 -6.030939,-1.134773 9e-6,-4e-5 z" id="N"/>
  <path d="M 21.403404,7.9869132 9.6533763,18.958057 15.861505,20.238031 27.411463,9.2371791 l -6.00807,-1.2502257 1.1e-5,-4.02e-5 0,0 z" id="O"/>
  <path d="M 9.9561047,58.857676 10.073883,60.211114 116.93541,50.911868 116.81763,49.55843 9.9561047,58.857676 z m 0.7726863,8.879263 0.118529,1.362062 36.008441,-3.133507 1.780179,20.456793 -36.008441,3.133508 0.118529,1.362062 53.361797,-4.643623 0.647405,7.43962 -53.361796,4.643621 0.118529,1.362062 53.361796,-4.643624 0.693167,7.965477 -53.361795,4.64362 0.117778,1.35344 106.861531,-9.299243 -0.11778,-1.353441 -52.146287,4.537844 -0.693167,-7.965474 52.146284,-4.537845 -0.11853,-1.362063 -52.146283,4.537846 -0.647408,-7.439618 52.146291,-4.537845 -0.11853,-1.362062 -34.155003,2.972217 -1.780178,-20.456793 34.155001,-2.972218 -0.11853,-1.362062 -106.861529,9.299246 0,0 z m 37.48903,-1.889973 33.973965,-2.956464 1.780179,20.456793 -33.973966,2.956464 -1.780178,-20.456793 0,0 z" id="P"/>
 </g>
 <g transform="matrix(0.3005144,-6.7530388e-4,6.7530388e-4,0.3005144,4.7162346,2.7830586)" id="6" fill="#eee">
  <g id="Q">
   <path d="m 22.731349,196.98816 c -7e-6,0.32036 -0.05457,0.63016 -0.163699,0.92939 -0.105619,0.29572 -0.269318,0.55799 -0.491098,0.78681 -0.221792,0.22883 -0.503424,0.41189 -0.844899,0.54918 -0.341485,0.13378 -0.746332,0.20067 -1.214542,0.20067 l -1.848217,0 0,2.61918 -1.557783,0 0,-7.44039 3.342632,0 c 0.475251,1e-5 0.887139,0.0581 1.235665,0.17426 0.348515,0.11266 0.637189,0.27284 0.866022,0.48054 0.22882,0.20771 0.3978,0.4559 0.506939,0.74457 0.112647,0.28868 0.168973,0.60727 0.16898,0.95579 m -1.568344,0.0264 c -5e-6,-0.38372 -0.116179,-0.67415 -0.348521,-0.8713 -0.228831,-0.20066 -0.573832,-0.30099 -1.035001,-0.301 l -1.610589,0 0,2.41325 1.652834,0 c 0.232343,0 0.431246,-0.0299 0.59671,-0.0898 0.168975,-0.0599 0.308031,-0.14434 0.417169,-0.25347 0.112648,-0.10913 0.195377,-0.23939 0.248189,-0.39077 0.0528,-0.15489 0.0792,-0.32387 0.07921,-0.50694" id="g"/>
   <path d="m 28.946639,202.07339 -1.726763,-2.82513 -1.827095,0 0,2.82513 -1.557782,0 0,-7.44039 3.717556,0 c 0.46469,1e-5 0.869537,0.0528 1.214543,0.15842 0.348515,0.1021 0.638948,0.24996 0.871302,0.44357 0.23234,0.19011 0.404841,0.42246 0.517501,0.69704 0.116166,0.27108 0.174253,0.57736 0.17426,0.91883 -7e-6,0.27812 -0.04225,0.53335 -0.126735,0.76569 -0.08098,0.22883 -0.19539,0.43302 -0.34324,0.61255 -0.144344,0.17955 -0.316844,0.33093 -0.517501,0.45414 -0.200669,0.11969 -0.418935,0.2077 -0.654797,0.26403 l 2.011917,3.12612 -1.753166,0 m -0.184822,-5.15916 c -6e-6,-0.3626 -0.1197,-0.63191 -0.359082,-0.80794 -0.235873,-0.17601 -0.573832,-0.26402 -1.013879,-0.26403 l -1.996075,0 0,2.19674 2.03832,0 c 0.232343,1e-5 0.431246,-0.0264 0.59671,-0.0792 0.168975,-0.0563 0.306271,-0.13377 0.411888,-0.23235 0.109128,-0.10208 0.190097,-0.22178 0.242909,-0.35908 0.0528,-0.13729 0.0792,-0.28867 0.07921,-0.45413" id="h"/>
   <path d="m 38.884766,198.31887 c -8e-6,0.58088 -0.08626,1.10894 -0.258751,1.58419 -0.172508,0.47526 -0.420696,0.88186 -0.744567,1.21982 -0.323885,0.33796 -0.719931,0.59847 -1.18814,0.78153 -0.4647,0.18307 -0.991001,0.2746 -1.578905,0.2746 -0.623117,0 -1.16878,-0.0951 -1.636992,-0.28516 -0.464697,-0.19362 -0.853702,-0.46117 -1.167017,-0.80265 -0.313318,-0.345 -0.549186,-0.75337 -0.707603,-1.2251 -0.154899,-0.47174 -0.232348,-0.98748 -0.232348,-1.54723 0,-0.58086 0.08097,-1.1054 0.242909,-1.57362 0.165458,-0.46821 0.406607,-0.86602 0.723445,-1.19342 0.320356,-0.33091 0.712881,-0.58438 1.177578,-0.76041 0.468212,-0.17953 1.005074,-0.2693 1.610589,-0.26931 0.605506,1e-5 1.140609,0.0898 1.605309,0.26931 0.468208,0.17955 0.860734,0.43478 1.177578,0.76569 0.32035,0.33092 0.563258,0.73049 0.728725,1.1987 0.165452,0.4647 0.248182,0.98572 0.24819,1.56306 m -1.589467,0 c -6e-6,-0.39076 -0.04753,-0.7428 -0.142577,-1.05612 -0.09154,-0.31683 -0.228833,-0.5879 -0.411888,-0.81322 -0.183067,-0.2253 -0.410134,-0.3978 -0.6812,-0.5175 -0.267556,-0.1232 -0.579113,-0.18481 -0.93467,-0.18482 -0.362606,1e-5 -0.681203,0.0616 -0.955792,0.18482 -0.271075,0.1197 -0.498141,0.2922 -0.6812,0.5175 -0.183064,0.22532 -0.32036,0.49639 -0.411888,0.81322 -0.09153,0.31332 -0.137299,0.66536 -0.137296,1.05612 -3e-6,0.38725 0.04576,0.74281 0.137296,1.06669 0.09505,0.32036 0.234105,0.59671 0.417169,0.82906 0.183058,0.23235 0.410125,0.41365 0.6812,0.5439 0.271068,0.13026 0.584384,0.19538 0.93995,0.19538 0.3802,0 0.707598,-0.0651 0.982195,-0.19538 0.274587,-0.13377 0.499893,-0.31684 0.67592,-0.54918 0.179535,-0.23587 0.31155,-0.51398 0.396046,-0.83434 0.08448,-0.32388 0.126729,-0.67592 0.126735,-1.05613" id="i"/>
   <path d="m 46.689523,198.29775 c -8e-6,0.6196 -0.0933,1.16526 -0.279873,1.63699 -0.186589,0.46822 -0.441819,0.86075 -0.76569,1.17758 -0.323884,0.31684 -0.707609,0.55623 -1.151175,0.71817 -0.440057,0.16194 -0.915312,0.2429 -1.425768,0.2429 l -3.009953,0 0,-7.44039 2.693116,0 c 0.577344,1e-5 1.107166,0.0722 1.589467,0.21651 0.482291,0.14434 0.897699,0.36613 1.246226,0.66535 0.348514,0.29925 0.619586,0.67945 0.813216,1.14062 0.193615,0.46118 0.290426,1.0086 0.290434,1.64227 m -1.568344,0 c -6e-6,-0.43301 -0.05985,-0.80441 -0.179541,-1.11421 -0.11618,-0.30979 -0.279879,-0.56326 -0.491098,-0.76041 -0.21123,-0.20066 -0.464699,-0.34851 -0.760409,-0.44357 -0.292199,-0.095 -0.616076,-0.14257 -0.971634,-0.14258 l -1.10365,0 0,5.03243 1.320155,0 c 0.313313,0 0.601986,-0.0546 0.866022,-0.1637 0.267546,-0.10913 0.498133,-0.27107 0.691761,-0.48581 0.197138,-0.21827 0.350275,-0.48758 0.459414,-0.80794 0.112647,-0.32035 0.168974,-0.69176 0.16898,-1.11421" id="j"/>
   <path d="m 47.882942,202.07339 0,-1.61058 1.5261,0 0,1.61058 -1.5261,0" id="k"/>
   <path d="m 55.402545,202.07339 -3.242301,-5.72947 c 0.0176,0.15491 0.03344,0.3098 0.04753,0.4647 0.01408,0.13378 0.02464,0.27811 0.03168,0.43301 0.01056,0.1549 0.01584,0.30276 0.01584,0.44357 l 0,4.38819 -1.383522,0 0,-7.44039 1.779569,0 3.289826,5.777 c -0.01761,-0.14786 -0.03345,-0.30275 -0.04753,-0.4647 -0.01409,-0.13729 -0.02641,-0.29219 -0.03696,-0.46469 -0.007,-0.1725 -0.01057,-0.34676 -0.01056,-0.52278 l 0,-4.32483 1.383522,0 0,7.44039 -1.827094,0" id="l"/>
   <path d="m 65.921541,198.31887 c -8e-6,0.58088 -0.08626,1.10894 -0.25875,1.58419 -0.172508,0.47526 -0.420697,0.88186 -0.744568,1.21982 -0.323884,0.33796 -0.71993,0.59847 -1.188139,0.78153 -0.4647,0.18307 -0.991001,0.2746 -1.578905,0.2746 -0.623117,0 -1.168781,-0.0951 -1.636993,-0.28516 -0.464696,-0.19362 -0.853702,-0.46117 -1.167017,-0.80265 -0.313318,-0.345 -0.549185,-0.75337 -0.707603,-1.2251 -0.154898,-0.47174 -0.232347,-0.98748 -0.232347,-1.54723 0,-0.58086 0.08097,-1.1054 0.242908,-1.57362 0.165459,-0.46821 0.406607,-0.86602 0.723445,-1.19342 0.320356,-0.33091 0.712882,-0.58438 1.177579,-0.76041 0.468212,-0.17953 1.005074,-0.2693 1.610589,-0.26931 0.605506,1e-5 1.140608,0.0898 1.605308,0.26931 0.468209,0.17955 0.860735,0.43478 1.177578,0.76569 0.320351,0.33092 0.563259,0.73049 0.728726,1.1987 0.165452,0.4647 0.248181,0.98572 0.248189,1.56306 m -1.589466,0 c -7e-6,-0.39076 -0.04753,-0.7428 -0.142577,-1.05612 -0.09154,-0.31683 -0.228833,-0.5879 -0.411889,-0.81322 -0.183067,-0.2253 -0.410133,-0.3978 -0.6812,-0.5175 -0.267556,-0.1232 -0.579112,-0.18481 -0.934669,-0.18482 -0.362607,1e-5 -0.681204,0.0616 -0.955792,0.18482 -0.271075,0.1197 -0.498142,0.2922 -0.6812,0.5175 -0.183064,0.22532 -0.32036,0.49639 -0.411889,0.81322 -0.09153,0.31332 -0.137298,0.66536 -0.137296,1.05612 -2e-6,0.38725 0.04576,0.74281 0.137296,1.06669 0.09505,0.32036 0.234105,0.59671 0.417169,0.82906 0.183059,0.23235 0.410125,0.41365 0.6812,0.5439 0.271068,0.13026 0.584385,0.19538 0.939951,0.19538 0.3802,0 0.707598,-0.0651 0.982195,-0.19538 0.274587,-0.13377 0.499893,-0.31684 0.675919,-0.54918 0.179535,-0.23587 0.311551,-0.51398 0.396047,-0.83434 0.08448,-0.32388 0.126728,-0.67592 0.126735,-1.05613" id="m"/>
   <path d="m 67.104399,202.07339 0,-1.61058 1.526099,0 0,1.61058 -1.526099,0" id="n"/>
  </g>
  <g id="R">
   <path d="m 23.090432,233.09348 c -7e-6,0.33796 -0.06161,0.646 -0.184822,0.92411 -0.123221,0.27459 -0.315083,0.51046 -0.575587,0.7076 -0.256996,0.19714 -0.587915,0.35028 -0.992757,0.45942 -0.401331,0.10561 -0.880107,0.15841 -1.436328,0.15841 -0.492861,0 -0.927632,-0.044 -1.304313,-0.13201 -0.376687,-0.088 -0.700564,-0.21827 -0.971635,-0.39077 -0.267552,-0.1725 -0.485817,-0.38548 -0.654796,-0.63895 -0.16546,-0.25699 -0.285154,-0.55095 -0.359083,-0.88187 l 1.504977,-0.24819 c 0.04224,0.16547 0.10385,0.31684 0.184822,0.45414 0.08097,0.1373 0.19186,0.25699 0.332679,0.35908 0.144334,0.0986 0.322115,0.17602 0.533342,0.23235 0.214743,0.0528 0.473493,0.0792 0.776252,0.0792 0.528057,0 0.931144,-0.0792 1.209262,-0.23763 0.281627,-0.16194 0.422444,-0.41365 0.422449,-0.75513 -5e-6,-0.20418 -0.05633,-0.3714 -0.16898,-0.50166 -0.112658,-0.13025 -0.262275,-0.23762 -0.448852,-0.32212 -0.186587,-0.0845 -0.401332,-0.15489 -0.644236,-0.21122 -0.242912,-0.0563 -0.496382,-0.11089 -0.760409,-0.1637 -0.211228,-0.0493 -0.422453,-0.10033 -0.633675,-0.15314 -0.211227,-0.0528 -0.41365,-0.11617 -0.607271,-0.1901 -0.190104,-0.0739 -0.367885,-0.16194 -0.533343,-0.26403 -0.16546,-0.10209 -0.309797,-0.22706 -0.43301,-0.37493 -0.119695,-0.15137 -0.214746,-0.32739 -0.285154,-0.52806 -0.06689,-0.20066 -0.100332,-0.43652 -0.100332,-0.7076 0,-0.36964 0.07393,-0.68648 0.221786,-0.95051 0.147857,-0.26403 0.35204,-0.47877 0.612552,-0.64424 0.26403,-0.16897 0.577346,-0.29218 0.939951,-0.36964 0.362599,-0.0774 0.758645,-0.11617 1.188139,-0.11618 0.485813,10e-6 0.901221,0.0387 1.246226,0.11618 0.348516,0.0739 0.63895,0.18835 0.871303,0.34324 0.235861,0.1549 0.420683,0.35029 0.554465,0.58615 0.137289,0.23235 0.237621,0.50518 0.300995,0.81849 l -1.510257,0.20595 c -0.07745,-0.32035 -0.235873,-0.5615 -0.475256,-0.72345 -0.235872,-0.16193 -0.575592,-0.2429 -1.01916,-0.24291 -0.274595,1e-5 -0.503422,0.0247 -0.68648,0.0739 -0.179544,0.0458 -0.323881,0.10914 -0.433011,0.19011 -0.105615,0.081 -0.181304,0.17602 -0.227067,0.28515 -0.04577,0.10562 -0.06865,0.21827 -0.06865,0.33796 -2e-6,0.18307 0.044,0.33444 0.132016,0.45413 0.08801,0.11618 0.211222,0.21475 0.369643,0.29572 0.158416,0.0774 0.346758,0.14434 0.565026,0.20066 0.221783,0.0528 0.464691,0.10738 0.728726,0.1637 0.232343,0.0493 0.46293,0.1021 0.691761,0.15842 0.228822,0.0528 0.447088,0.11618 0.654797,0.1901 0.207699,0.0739 0.401322,0.1637 0.580868,0.26931 0.179535,0.10562 0.334433,0.23587 0.464695,0.39077 0.133769,0.15138 0.237621,0.33268 0.311556,0.5439 0.07744,0.21123 0.116167,0.46118 0.116174,0.74985" id="o"/>
   <path d="m 27.721536,234.11792 c 0.292189,0 0.543899,-0.0405 0.755128,-0.12145 0.21474,-0.0845 0.399562,-0.19363 0.554465,-0.3274 0.158413,-0.13378 0.288668,-0.28515 0.390766,-0.45414 0.105607,-0.16897 0.191857,-0.33971 0.258751,-0.51222 l 1.357119,0.51222 c -0.10914,0.26756 -0.251717,0.52983 -0.42773,0.78682 -0.176028,0.25699 -0.396053,0.48405 -0.660078,0.6812 -0.264037,0.19714 -0.579114,0.35732 -0.945231,0.48053 -0.362607,0.1197 -0.790337,0.17954 -1.28319,0.17954 -0.64424,0 -1.202225,-0.095 -1.673957,-0.28515 -0.471737,-0.19362 -0.862503,-0.46117 -1.172298,-0.80265 -0.306277,-0.345 -0.535103,-0.75337 -0.68648,-1.22511 -0.147858,-0.47173 -0.221787,-0.98747 -0.221786,-1.54722 -1e-6,-0.58086 0.07393,-1.1054 0.221786,-1.57362 0.151377,-0.46821 0.378443,-0.86602 0.6812,-1.19342 0.302754,-0.33092 0.684718,-0.58439 1.145894,-0.76041 0.464692,-0.17954 1.010355,-0.26931 1.636993,-0.26932 0.485812,1e-5 0.910021,0.0511 1.272629,0.15314 0.366117,0.1021 0.681194,0.24644 0.945231,0.43301 0.267545,0.18307 0.48757,0.40134 0.660077,0.6548 0.176014,0.24996 0.31331,0.52631 0.411889,0.82906 l -1.372961,0.37492 c -0.04929,-0.15841 -0.124981,-0.30979 -0.227067,-0.45413 -0.102098,-0.14785 -0.232353,-0.27811 -0.390766,-0.39077 -0.154903,-0.11264 -0.337965,-0.20241 -0.549184,-0.26931 -0.21123,-0.0704 -0.450618,-0.1056 -0.718165,-0.10561 -0.376688,1e-5 -0.700565,0.0616 -0.971634,0.18482 -0.271075,0.1197 -0.494621,0.2922 -0.670639,0.5175 -0.172502,0.22531 -0.300997,0.49638 -0.385485,0.81322 -0.08097,0.31332 -0.121456,0.66536 -0.121454,1.05612 -2e-6,0.38725 0.04048,0.74281 0.121454,1.06669 0.08449,0.32036 0.214743,0.59671 0.390766,0.82905 0.176018,0.23235 0.401324,0.41365 0.675919,0.54391 0.27811,0.13025 0.610788,0.19538 0.998038,0.19538" id="p"/>
   <path d="m 32.062205,235.23741 0,-7.44039 5.850927,0 0,1.20398 -4.293144,0 0,1.86934 3.971026,0 0,1.20398 -3.971026,0 0,1.95911 4.50965,0 0,1.20398 -6.067433,0" id="q"/>
   <path d="m 43.816866,235.23741 -3.242301,-5.72947 c 0.0176,0.1549 0.03344,0.3098 0.04753,0.46469 0.01408,0.13378 0.02464,0.27812 0.03168,0.43301 0.01056,0.15491 0.01584,0.30276 0.01584,0.44358 l 0,4.38819 -1.383522,0 0,-7.44039 1.779569,0 3.289826,5.777 c -0.01761,-0.14786 -0.03345,-0.30276 -0.04753,-0.4647 -0.01409,-0.13729 -0.02641,-0.29219 -0.03696,-0.46469 -0.007,-0.1725 -0.01057,-0.34676 -0.01056,-0.52278 l 0,-4.32483 1.383522,0 0,7.44039 -1.827094,0" id="r"/>
   <path d="m 47.101411,235.23741 0,-7.44039 5.850927,0 0,1.20398 -4.293144,0 0,1.86934 3.971026,0 0,1.20398 -3.971026,0 0,1.95911 4.509649,0 0,1.20398 -6.067432,0" id="s"/>
  </g>
  <g id="S">
   <path d="m 151.2249,235.23741 -1.72676,-2.82513 -1.8271,0 0,2.82513 -1.55778,0 0,-7.44039 3.71756,0 c 0.46469,1e-5 0.86953,0.0528 1.21454,0.15842 0.34852,0.1021 0.63895,0.24995 0.8713,0.44357 0.23234,0.19011 0.40484,0.42245 0.5175,0.69704 0.11617,0.27108 0.17426,0.57735 0.17426,0.91883 0,0.27812 -0.0422,0.53335 -0.12673,0.76569 -0.081,0.22883 -0.19539,0.43301 -0.34324,0.61255 -0.14434,0.17954 -0.31685,0.33092 -0.5175,0.45413 -0.20067,0.1197 -0.41894,0.20771 -0.6548,0.26403 l 2.01192,3.12613 -1.75317,0 m -0.18482,-5.15916 c -1e-5,-0.3626 -0.1197,-0.63191 -0.35908,-0.80794 -0.23588,-0.17601 -0.57383,-0.26402 -1.01388,-0.26403 l -1.99608,0 0,2.19674 2.03832,0 c 0.23235,0 0.43125,-0.0264 0.59671,-0.0792 0.16898,-0.0563 0.30627,-0.13377 0.41189,-0.23235 0.10913,-0.10209 0.1901,-0.22178 0.24291,-0.35908 0.0528,-0.13729 0.0792,-0.28867 0.0792,-0.45413" id="t"/>
   <path d="m 161.16303,231.48289 c -1e-5,0.58087 -0.0863,1.10893 -0.25875,1.58419 -0.17251,0.47525 -0.4207,0.88186 -0.74457,1.21982 -0.32388,0.33796 -0.71993,0.59847 -1.18814,0.78153 -0.4647,0.18306 -0.991,0.27459 -1.5789,0.27459 -0.62312,0 -1.16878,-0.095 -1.637,-0.28515 -0.46469,-0.19362 -0.8537,-0.46117 -1.16701,-0.80265 -0.31332,-0.345 -0.54919,-0.75337 -0.70761,-1.22511 -0.1549,-0.47173 -0.23234,-0.98747 -0.23234,-1.54722 0,-0.58086 0.081,-1.1054 0.2429,-1.57362 0.16546,-0.46821 0.40661,-0.86602 0.72345,-1.19342 0.32036,-0.33092 0.71288,-0.58439 1.17758,-0.76041 0.46821,-0.17954 1.00507,-0.26931 1.61059,-0.26932 0.6055,1e-5 1.14061,0.0898 1.60531,0.26932 0.4682,0.17954 0.86073,0.43477 1.17757,0.76569 0.32035,0.33092 0.56326,0.73049 0.72873,1.1987 0.16545,0.4647 0.24818,0.98572 0.24819,1.56306 m -1.58947,0 c 0,-0.39076 -0.0475,-0.7428 -0.14258,-1.05612 -0.0915,-0.31684 -0.22883,-0.58791 -0.41188,-0.81322 -0.18307,-0.2253 -0.41014,-0.3978 -0.6812,-0.5175 -0.26756,-0.12321 -0.57912,-0.18481 -0.93467,-0.18482 -0.36261,1e-5 -0.68121,0.0616 -0.9558,0.18482 -0.27107,0.1197 -0.49814,0.2922 -0.6812,0.5175 -0.18306,0.22531 -0.32036,0.49638 -0.41188,0.81322 -0.0915,0.31332 -0.1373,0.66536 -0.1373,1.05612 0,0.38725 0.0458,0.74281 0.1373,1.06669 0.095,0.32036 0.2341,0.59671 0.41717,0.82905 0.18305,0.23235 0.41012,0.41365 0.6812,0.54391 0.27106,0.13025 0.58438,0.19538 0.93995,0.19538 0.3802,0 0.70759,-0.0651 0.98219,-0.19538 0.27459,-0.13378 0.49989,-0.31684 0.67592,-0.54919 0.17954,-0.23586 0.31155,-0.51398 0.39605,-0.83434 0.0845,-0.32387 0.12673,-0.67591 0.12673,-1.05612" id="u"/>
   <path d="m 162.33533,235.23741 0,-7.44039 1.55778,0 0,6.23641 3.99215,0 0,1.20398 -5.54993,0" id="v"/>
   <path d="m 168.94666,235.23741 0,-7.44039 1.55778,0 0,6.23641 3.99215,0 0,1.20398 -5.54993,0" id="w"/>
  </g>
  <g id="T">
   <path d="m 274.80982,228.99836 0,6.23641 -1.55778,0 0,-6.23641 -2.40268,0 0,-1.20398 6.36843,0 0,1.20398 -2.40797,0" id="x"/>
   <path d="m 282.51953,235.23477 -0.66008,-1.90102 -2.83569,0 -0.66008,1.90102 -1.55778,0 2.71424,-7.44039 1.83765,0 2.70368,7.44039 -1.54194,0 m -1.7426,-5.21197 c -0.0422,-0.12321 -0.0845,-0.24642 -0.12674,-0.36964 -0.0387,-0.12673 -0.0739,-0.24115 -0.10561,-0.34324 -0.0282,-0.10561 -0.0528,-0.19186 -0.0739,-0.25875 -0.0176,-0.0669 -0.0282,-0.10385 -0.0317,-0.1109 -0.004,0.0106 -0.0141,0.0493 -0.0317,0.11618 -0.0176,0.0669 -0.0423,0.15138 -0.0739,0.25347 -0.0282,0.10209 -0.0634,0.21651 -0.10561,0.34324 -0.0387,0.12322 -0.0792,0.24643 -0.12145,0.36964 l -0.73401,2.13865 2.13865,0 -0.734,-2.13865" id="y"/>
   <path d="m 290.22395,235.23477 -2.67199,-3.41656 -0.91883,0.70232 0,2.71424 -1.55778,0 0,-7.44039 1.55778,0 0,3.37431 3.3532,-3.37431 1.81653,0 -3.17893,3.14725 3.43768,4.29314 -1.83766,0" id="z"/>
   <path d="m 292.89067,235.23477 0,-7.44039 5.85092,0 0,1.20398 -4.29314,0 0,1.86934 3.97103,0 0,1.20398 -3.97103,0 0,1.95911 4.50965,0 0,1.20398 -6.06743,0" id="10"/>
  </g>
  <g id="U">
   <path d="m 23.243569,309.96175 c -7e-6,0.6196 -0.0933,1.16526 -0.279873,1.637 -0.186588,0.46821 -0.441818,0.86074 -0.765689,1.17757 -0.323884,0.31684 -0.707609,0.55623 -1.151176,0.71817 -0.440056,0.16194 -0.915311,0.24291 -1.425767,0.24291 l -3.009953,0 0,-7.4404 2.693116,0 c 0.577344,10e-6 1.107165,0.0722 1.589466,0.21651 0.482292,0.14434 0.8977,0.36613 1.246227,0.66536 0.348514,0.29924 0.619586,0.67944 0.813215,1.14061 0.193616,0.46118 0.290427,1.0086 0.290434,1.64227 m -1.568344,0 c -6e-6,-0.433 -0.05985,-0.80441 -0.179541,-1.11421 -0.116179,-0.30979 -0.279878,-0.56326 -0.491098,-0.76041 -0.211229,-0.20065 -0.464699,-0.34851 -0.760409,-0.44357 -0.292198,-0.095 -0.616076,-0.14257 -0.971634,-0.14258 l -1.103649,0 0,5.03243 1.320155,0 c 0.313312,10e-6 0.601986,-0.0546 0.866021,-0.16369 0.267547,-0.10914 0.498134,-0.27107 0.691761,-0.48582 0.197138,-0.21826 0.350276,-0.48758 0.459414,-0.80794 0.112648,-0.32035 0.168974,-0.69175 0.16898,-1.11421" id="11"/>
   <path d="m 24.426428,313.7374 0,-7.4404 1.557783,0 0,7.4404 -1.557783,0" id="12"/>
   <path d="m 32.53746,313.7374 -1.726762,-2.82514 -1.827095,0 0,2.82514 -1.557783,0 0,-7.4404 3.717557,0 c 0.464689,10e-6 0.869537,0.0528 1.214542,0.15842 0.348515,0.1021 0.638949,0.24996 0.871303,0.44357 0.23234,0.19011 0.40484,0.42246 0.5175,0.69705 0.116167,0.27107 0.174254,0.57735 0.174261,0.91882 -7e-6,0.27812 -0.04225,0.53335 -0.126735,0.76569 -0.08098,0.22883 -0.19539,0.43302 -0.34324,0.61255 -0.144344,0.17955 -0.316844,0.33093 -0.517501,0.45414 -0.20067,0.1197 -0.418935,0.20771 -0.654797,0.26403 l 2.011916,3.12613 -1.753166,0 m -0.184821,-5.15917 c -6e-6,-0.3626 -0.1197,-0.63191 -0.359082,-0.80793 -0.235873,-0.17602 -0.573832,-0.26403 -1.013879,-0.26404 l -1.996075,0 0,2.19674 2.03832,0 c 0.232342,1e-5 0.431245,-0.0264 0.59671,-0.0792 0.168974,-0.0563 0.30627,-0.13377 0.411888,-0.23234 0.109127,-0.10209 0.190097,-0.22179 0.242908,-0.35909 0.0528,-0.13729 0.0792,-0.28867 0.07921,-0.45413" id="13"/>
   <path d="m 35.241138,313.7374 0,-7.4404 5.850927,0 0,1.20398 -4.293144,0 0,1.86934 3.971027,0 0,1.20398 -3.971027,0 0,1.95911 4.50965,0 0,1.20399 -6.067433,0" id="14"/>
   <path d="m 45.939675,312.6179 c 0.29219,10e-6 0.543899,-0.0405 0.755128,-0.12145 0.21474,-0.0845 0.399562,-0.19362 0.554466,-0.3274 0.158412,-0.13377 0.288668,-0.28515 0.390765,-0.45413 0.105607,-0.16898 0.191857,-0.33972 0.258751,-0.51222 l 1.357119,0.51222 c -0.10914,0.26755 -0.251717,0.52982 -0.42773,0.78681 -0.176028,0.25699 -0.396053,0.48406 -0.660078,0.6812 -0.264037,0.19714 -0.579113,0.35732 -0.945231,0.48054 -0.362607,0.11969 -0.790337,0.17954 -1.28319,0.17954 -0.644239,0 -1.202224,-0.0951 -1.673957,-0.28515 -0.471737,-0.19363 -0.862503,-0.46118 -1.172297,-0.80266 -0.306277,-0.345 -0.535104,-0.75337 -0.686481,-1.2251 -0.147858,-0.47174 -0.221786,-0.98748 -0.221786,-1.54722 0,-0.58087 0.07393,-1.10541 0.221786,-1.57363 0.151377,-0.46821 0.378443,-0.86601 0.6812,-1.19342 0.302754,-0.33091 0.684718,-0.58438 1.145895,-0.76041 0.464691,-0.17953 1.010355,-0.2693 1.636992,-0.26931 0.485812,1e-5 0.910022,0.0511 1.272629,0.15314 0.366117,0.1021 0.681194,0.24643 0.945231,0.43301 0.267545,0.18307 0.487571,0.40133 0.660078,0.6548 0.176013,0.24995 0.313309,0.5263 0.411888,0.82905 l -1.372961,0.37493 c -0.04929,-0.15842 -0.124981,-0.30979 -0.227067,-0.45414 -0.102098,-0.14785 -0.232353,-0.2781 -0.390766,-0.39076 -0.154903,-0.11265 -0.337965,-0.20242 -0.549184,-0.26931 -0.21123,-0.0704 -0.450618,-0.10561 -0.718165,-0.10562 -0.376688,1e-5 -0.700565,0.0616 -0.971634,0.18483 -0.271074,0.1197 -0.49462,0.2922 -0.670638,0.5175 -0.172503,0.22531 -0.300998,0.49638 -0.385486,0.81321 -0.08097,0.31332 -0.121456,0.66536 -0.121454,1.05613 -2e-6,0.38724 0.04048,0.74281 0.121454,1.06668 0.08449,0.32036 0.214743,0.59671 0.390766,0.82906 0.176018,0.23235 0.401324,0.41365 0.67592,0.5439 0.278109,0.13026 0.610788,0.19539 0.998037,0.19538" id="15"/>
   <path d="m 53.638816,307.50098 0,6.23642 -1.557782,0 0,-6.23642 -2.402683,0 0,-1.20398 6.368428,0 0,1.20398 -2.407963,0" id="16"/>
   <path d="m 63.936026,309.98288 c -8e-6,0.58087 -0.08626,1.10893 -0.258751,1.58418 -0.172508,0.47526 -0.420696,0.88187 -0.744567,1.21982 -0.323885,0.33796 -0.719931,0.59848 -1.18814,0.78154 -0.4647,0.18306 -0.991001,0.27459 -1.578905,0.27459 -0.623117,0 -1.16878,-0.0951 -1.636992,-0.28515 -0.464697,-0.19363 -0.853702,-0.46118 -1.167017,-0.80266 -0.313318,-0.345 -0.549186,-0.75337 -0.707603,-1.2251 -0.154899,-0.47174 -0.232348,-0.98748 -0.232348,-1.54722 0,-0.58087 0.08097,-1.10541 0.242909,-1.57363 0.165458,-0.46821 0.406607,-0.86601 0.723445,-1.19342 0.320356,-0.33091 0.712881,-0.58438 1.177578,-0.76041 0.468212,-0.17953 1.005074,-0.2693 1.610589,-0.26931 0.605506,1e-5 1.140609,0.0898 1.605309,0.26931 0.468208,0.17955 0.860734,0.43478 1.177578,0.76569 0.32035,0.33093 0.563258,0.73049 0.728725,1.1987 0.165452,0.4647 0.248182,0.98572 0.24819,1.56307 m -1.589467,0 c -6e-6,-0.39077 -0.04753,-0.74281 -0.142577,-1.05613 -0.09154,-0.31683 -0.228833,-0.5879 -0.411888,-0.81321 -0.183067,-0.2253 -0.410134,-0.3978 -0.6812,-0.5175 -0.267556,-0.12321 -0.579113,-0.18482 -0.93467,-0.18483 -0.362606,1e-5 -0.681203,0.0616 -0.955792,0.18483 -0.271075,0.1197 -0.498141,0.2922 -0.6812,0.5175 -0.183064,0.22531 -0.32036,0.49638 -0.411888,0.81321 -0.09153,0.31332 -0.137299,0.66536 -0.137297,1.05613 -2e-6,0.38724 0.04576,0.74281 0.137297,1.06668 0.09505,0.32036 0.234105,0.59671 0.417169,0.82906 0.183058,0.23235 0.410125,0.41365 0.6812,0.5439 0.271068,0.13026 0.584384,0.19539 0.93995,0.19538 0.3802,10e-6 0.707598,-0.0651 0.982195,-0.19538 0.274587,-0.13377 0.499893,-0.31683 0.67592,-0.54918 0.179535,-0.23587 0.31155,-0.51398 0.396046,-0.83434 0.08448,-0.32388 0.126729,-0.67592 0.126735,-1.05612" id="17"/>
   <path d="m 70.219966,313.7374 -1.726763,-2.82514 -1.827094,0 0,2.82514 -1.557783,0 0,-7.4404 3.717556,0 c 0.46469,10e-6 0.869537,0.0528 1.214543,0.15842 0.348515,0.1021 0.638949,0.24996 0.871302,0.44357 0.232341,0.19011 0.404841,0.42246 0.517501,0.69705 0.116167,0.27107 0.174253,0.57735 0.17426,0.91882 -7e-6,0.27812 -0.04225,0.53335 -0.126734,0.76569 -0.08098,0.22883 -0.19539,0.43302 -0.343241,0.61255 -0.144343,0.17955 -0.316843,0.33093 -0.5175,0.45414 -0.20067,0.1197 -0.418935,0.20771 -0.654797,0.26403 l 2.011916,3.12613 -1.753166,0 m -0.184822,-5.15917 c -5e-6,-0.3626 -0.119699,-0.63191 -0.359082,-0.80793 -0.235873,-0.17602 -0.573832,-0.26403 -1.013879,-0.26404 l -1.996074,0 0,2.19674 2.038319,0 c 0.232343,1e-5 0.431246,-0.0264 0.59671,-0.0792 0.168975,-0.0563 0.306271,-0.13377 0.411889,-0.23234 0.109127,-0.10209 0.190096,-0.22179 0.242908,-0.35909 0.0528,-0.13729 0.0792,-0.28867 0.07921,-0.45413" id="18"/>
  </g>
  <g id="V">
   <path d="m 211.68569,312.6179 c 0.29219,10e-6 0.5439,-0.0405 0.75513,-0.12145 0.21474,-0.0845 0.39956,-0.19362 0.55446,-0.3274 0.15841,-0.13377 0.28867,-0.28515 0.39077,-0.45413 0.1056,-0.16898 0.19185,-0.33972 0.25875,-0.51222 l 1.35712,0.51222 c -0.10914,0.26755 -0.25172,0.52982 -0.42773,0.78681 -0.17603,0.25699 -0.39606,0.48406 -0.66008,0.6812 -0.26404,0.19714 -0.57911,0.35732 -0.94523,0.48054 -0.36261,0.11969 -0.79034,0.17954 -1.28319,0.17954 -0.64424,0 -1.20223,-0.0951 -1.67396,-0.28515 -0.47174,-0.19363 -0.8625,-0.46118 -1.1723,-0.80266 -0.30627,-0.345 -0.5351,-0.75337 -0.68648,-1.2251 -0.14786,-0.47174 -0.22178,-0.98748 -0.22178,-1.54722 0,-0.58087 0.0739,-1.10541 0.22178,-1.57363 0.15138,-0.46821 0.37845,-0.86601 0.6812,-1.19342 0.30276,-0.33091 0.68472,-0.58438 1.1459,-0.76041 0.46469,-0.17953 1.01035,-0.2693 1.63699,-0.26931 0.48581,1e-5 0.91002,0.0511 1.27263,0.15314 0.36612,0.1021 0.68119,0.24643 0.94523,0.43301 0.26754,0.18307 0.48757,0.40133 0.66008,0.6548 0.17601,0.24995 0.31331,0.5263 0.41189,0.82905 l -1.37297,0.37493 c -0.0493,-0.15842 -0.12498,-0.30979 -0.22706,-0.45414 -0.1021,-0.14785 -0.23236,-0.2781 -0.39077,-0.39076 -0.1549,-0.11265 -0.33796,-0.20242 -0.54918,-0.26931 -0.21123,-0.0704 -0.45062,-0.10561 -0.71817,-0.10562 -0.37668,1e-5 -0.70056,0.0616 -0.97163,0.18483 -0.27108,0.1197 -0.49462,0.2922 -0.67064,0.5175 -0.1725,0.22531 -0.301,0.49638 -0.38548,0.81321 -0.081,0.31332 -0.12146,0.66536 -0.12146,1.05613 0,0.38724 0.0405,0.74281 0.12146,1.06668 0.0845,0.32036 0.21474,0.59671 0.39076,0.82906 0.17602,0.23235 0.40133,0.41365 0.67592,0.5439 0.27811,0.13026 0.61079,0.19539 0.99804,0.19538" id="19"/>
   <path d="m 221.28585,313.7374 -0.66007,-1.90103 -2.8357,0 -0.66007,1.90103 -1.55779,0 2.71424,-7.4404 1.83766,0 2.70368,7.4404 -1.54195,0 m -1.7426,-5.21198 c -0.0422,-0.1232 -0.0845,-0.24642 -0.12673,-0.36964 -0.0387,-0.12673 -0.0739,-0.24114 -0.10562,-0.34324 -0.0282,-0.10561 -0.0528,-0.19186 -0.0739,-0.25875 -0.0176,-0.0669 -0.0282,-0.10385 -0.0317,-0.11089 -0.004,0.0106 -0.0141,0.0493 -0.0317,0.11617 -0.0176,0.0669 -0.0422,0.15138 -0.0739,0.25347 -0.0282,0.1021 -0.0634,0.21651 -0.10561,0.34324 -0.0387,0.12322 -0.0792,0.24644 -0.12146,0.36964 l -0.734,2.13866 2.13865,0 -0.73401,-2.13866" id="1A"/>
   <path d="m 230.02,313.7374 0,-4.50965 c -1e-5,-0.17954 0.002,-0.36436 0.005,-0.55447 0.007,-0.1901 0.0141,-0.36436 0.0211,-0.52278 0.0106,-0.18658 0.0194,-0.36788 0.0264,-0.5439 -0.0739,0.27811 -0.14435,0.54215 -0.21123,0.79209 -0.0282,0.10562 -0.0581,0.21475 -0.0898,0.3274 -0.0317,0.11266 -0.0634,0.22179 -0.095,0.3274 -0.0282,0.10561 -0.0563,0.20418 -0.0845,0.29571 -0.0282,0.0915 -0.0528,0.17075 -0.0739,0.23763 l -1.34128,4.15057 -1.10893,0 -1.34127,-4.15057 c -0.0211,-0.0669 -0.0458,-0.14609 -0.0739,-0.23763 -0.0247,-0.0915 -0.0528,-0.1901 -0.0845,-0.29571 -0.0282,-0.10561 -0.0581,-0.21474 -0.0898,-0.3274 -0.0317,-0.11265 -0.0634,-0.22178 -0.095,-0.3274 -0.0704,-0.24994 -0.14434,-0.51398 -0.22179,-0.79209 0.0106,0.20419 0.0211,0.40485 0.0317,0.60199 0.007,0.16898 0.0141,0.34676 0.0211,0.53334 0.007,0.18659 0.0106,0.34853 0.0106,0.48582 l 0,4.50965 -1.38353,0 0,-7.4404 2.08585,0 1.33072,4.16113 c 0.0352,0.10914 0.0722,0.24291 0.11089,0.40133 0.0422,0.15842 0.0827,0.31156 0.12145,0.45941 0.0422,0.1725 0.088,0.35205 0.1373,0.53863 0.0493,-0.18306 0.0968,-0.35908 0.14258,-0.52807 0.0211,-0.0739 0.0422,-0.14961 0.0634,-0.22706 0.0211,-0.0774 0.0422,-0.15314 0.0634,-0.22707 0.0211,-0.0739 0.0422,-0.14433 0.0634,-0.21122 0.0211,-0.0669 0.0405,-0.12674 0.0581,-0.17955 l 1.30959,-4.18753 2.07528,0 0,7.4404 -1.38352,0" id="1B"/>
   <path d="m 232.86097,313.7374 0,-7.4404 5.85093,0 0,1.20398 -4.29314,0 0,1.86934 3.97102,0 0,1.20398 -3.97102,0 0,1.95911 4.50964,0 0,1.20399 -6.06743,0" id="1C"/>
   <path d="m 245.1965,313.7374 -1.72676,-2.82514 -1.8271,0 0,2.82514 -1.55778,0 0,-7.4404 3.71756,0 c 0.46469,10e-6 0.86953,0.0528 1.21454,0.15842 0.34851,0.1021 0.63895,0.24996 0.8713,0.44357 0.23234,0.19011 0.40484,0.42246 0.5175,0.69705 0.11617,0.27107 0.17426,0.57735 0.17426,0.91882 0,0.27812 -0.0422,0.53335 -0.12673,0.76569 -0.081,0.22883 -0.19539,0.43302 -0.34324,0.61255 -0.14435,0.17955 -0.31685,0.33093 -0.5175,0.45414 -0.20067,0.1197 -0.41894,0.20771 -0.6548,0.26403 l 2.01192,3.12613 -1.75317,0 m -0.18482,-5.15917 c -1e-5,-0.3626 -0.1197,-0.63191 -0.35908,-0.80793 -0.23588,-0.17602 -0.57384,-0.26403 -1.01388,-0.26404 l -1.99608,0 0,2.19674 2.03832,0 c 0.23235,1e-5 0.43125,-0.0264 0.59671,-0.0792 0.16898,-0.0563 0.30627,-0.13377 0.41189,-0.23234 0.10913,-0.10209 0.1901,-0.22179 0.24291,-0.35909 0.0528,-0.13729 0.0792,-0.28867 0.0792,-0.45413" id="1D"/>
   <path d="m 253.15968,313.7374 -0.66008,-1.90103 -2.83569,0 -0.66008,1.90103 -1.55778,0 2.71424,-7.4404 1.83765,0 2.70368,7.4404 -1.54194,0 m -1.74261,-5.21198 c -0.0422,-0.1232 -0.0845,-0.24642 -0.12673,-0.36964 -0.0387,-0.12673 -0.0739,-0.24114 -0.10561,-0.34324 -0.0282,-0.10561 -0.0528,-0.19186 -0.0739,-0.25875 -0.0176,-0.0669 -0.0282,-0.10385 -0.0317,-0.11089 -0.004,0.0106 -0.0141,0.0493 -0.0317,0.11617 -0.0176,0.0669 -0.0422,0.15138 -0.0739,0.25347 -0.0282,0.1021 -0.0634,0.21651 -0.10561,0.34324 -0.0387,0.12322 -0.0792,0.24644 -0.12146,0.36964 l -0.734,2.13866 2.13865,0 -0.73401,-2.13866" id="1E"/>
   <path d="m 261.89382,313.7374 0,-4.50965 c -1e-5,-0.17954 0.002,-0.36436 0.005,-0.55447 0.007,-0.1901 0.0141,-0.36436 0.0211,-0.52278 0.0106,-0.18658 0.0194,-0.36788 0.0264,-0.5439 -0.0739,0.27811 -0.14435,0.54215 -0.21123,0.79209 -0.0282,0.10562 -0.0581,0.21475 -0.0898,0.3274 -0.0317,0.11266 -0.0634,0.22179 -0.095,0.3274 -0.0282,0.10561 -0.0563,0.20418 -0.0845,0.29571 -0.0282,0.0915 -0.0528,0.17075 -0.0739,0.23763 l -1.34128,4.15057 -1.10893,0 -1.34127,-4.15057 c -0.0211,-0.0669 -0.0458,-0.14609 -0.0739,-0.23763 -0.0247,-0.0915 -0.0528,-0.1901 -0.0845,-0.29571 -0.0282,-0.10561 -0.0581,-0.21474 -0.0898,-0.3274 -0.0317,-0.11265 -0.0634,-0.22178 -0.0951,-0.3274 -0.0704,-0.24994 -0.14434,-0.51398 -0.22179,-0.79209 0.0106,0.20419 0.0211,0.40485 0.0317,0.60199 0.007,0.16898 0.0141,0.34676 0.0211,0.53334 0.007,0.18659 0.0106,0.34853 0.0106,0.48582 l 0,4.50965 -1.38352,0 0,-7.4404 2.08584,0 1.33072,4.16113 c 0.0352,0.10914 0.0722,0.24291 0.11089,0.40133 0.0422,0.15842 0.0827,0.31156 0.12145,0.45941 0.0422,0.1725 0.088,0.35205 0.1373,0.53863 0.0493,-0.18306 0.0968,-0.35908 0.14258,-0.52807 0.0211,-0.0739 0.0422,-0.14961 0.0634,-0.22706 0.0211,-0.0774 0.0422,-0.15314 0.0634,-0.22707 0.0211,-0.0739 0.0422,-0.14433 0.0634,-0.21122 0.0211,-0.0669 0.0405,-0.12674 0.0581,-0.17955 l 1.30959,-4.18753 2.07528,0 0,7.4404 -1.38352,0" id="1F"/>
   <path d="m 269.99429,313.7374 -0.66008,-1.90103 -2.83569,0 -0.66008,1.90103 -1.55778,0 2.71424,-7.4404 1.83765,0 2.70368,7.4404 -1.54194,0 m -1.7426,-5.21198 c -0.0423,-0.1232 -0.0845,-0.24642 -0.12674,-0.36964 -0.0387,-0.12673 -0.0739,-0.24114 -0.10561,-0.34324 -0.0282,-0.10561 -0.0528,-0.19186 -0.0739,-0.25875 -0.0176,-0.0669 -0.0282,-0.10385 -0.0317,-0.11089 -0.004,0.0106 -0.0141,0.0493 -0.0317,0.11617 -0.0176,0.0669 -0.0423,0.15138 -0.0739,0.25347 -0.0282,0.1021 -0.0634,0.21651 -0.10561,0.34324 -0.0387,0.12322 -0.0792,0.24644 -0.12145,0.36964 l -0.73401,2.13866 2.13865,0 -0.734,-2.13866" id="1G"/>
   <path d="m 277.08088,313.7374 -3.2423,-5.72948 c 0.0176,0.15491 0.0335,0.30981 0.0475,0.4647 0.0141,0.13378 0.0246,0.27812 0.0317,0.43301 0.0106,0.1549 0.0158,0.30276 0.0159,0.44357 l 0,4.3882 -1.38353,0 0,-7.4404 1.77957,0 3.28983,5.777 c -0.0176,-0.14785 -0.0335,-0.30275 -0.0475,-0.46469 -0.0141,-0.1373 -0.0264,-0.2922 -0.037,-0.4647 -0.007,-0.1725 -0.0106,-0.34676 -0.0106,-0.52278 l 0,-4.32483 1.38352,0 0,7.4404 -1.8271,0" id="1H"/>
  </g>
  <g id="W">
   <path d="m 214.56362,341.86175 c -10e-6,0.61959 -0.0933,1.16526 -0.27987,1.63699 -0.18659,0.46822 -0.44182,0.86074 -0.76569,1.17758 -0.32389,0.31684 -0.70761,0.55622 -1.15118,0.71816 -0.44005,0.16194 -0.91531,0.24291 -1.42576,0.24291 l -3.00996,0 0,-7.44039 2.69312,0 c 0.57734,0 1.10716,0.0722 1.58947,0.2165 0.48229,0.14435 0.8977,0.36613 1.24622,0.66536 0.34852,0.29924 0.61959,0.67945 0.81322,1.14061 0.19361,0.46118 0.29042,1.00861 0.29043,1.64228 m -1.56834,0 c -1e-5,-0.43301 -0.0599,-0.80441 -0.17954,-1.11421 -0.11618,-0.3098 -0.27988,-0.56326 -0.4911,-0.76041 -0.21123,-0.20066 -0.4647,-0.34852 -0.76041,-0.44358 -0.2922,-0.095 -0.61608,-0.14257 -0.97163,-0.14257 l -1.10365,0 0,5.03243 1.32015,0 c 0.31331,0 0.60199,-0.0546 0.86602,-0.1637 0.26755,-0.10913 0.49814,-0.27107 0.69176,-0.48582 0.19714,-0.21826 0.35028,-0.48757 0.45942,-0.80793 0.11265,-0.32036 0.16897,-0.69176 0.16898,-1.11421" id="1I"/>
   <path d="m 221.00598,345.63739 -0.66008,-1.90102 -2.83569,0 -0.66008,1.90102 -1.55778,0 2.71424,-7.44039 1.83765,0 2.70368,7.44039 -1.54194,0 m -1.74261,-5.21197 c -0.0422,-0.12321 -0.0845,-0.24643 -0.12673,-0.36965 -0.0387,-0.12672 -0.0739,-0.24114 -0.10561,-0.34324 -0.0282,-0.1056 -0.0528,-0.19185 -0.0739,-0.25875 -0.0176,-0.0669 -0.0282,-0.10384 -0.0317,-0.11089 -0.004,0.0106 -0.0141,0.0493 -0.0317,0.11617 -0.0176,0.0669 -0.0422,0.15139 -0.0739,0.25347 -0.0282,0.1021 -0.0634,0.21652 -0.10561,0.34324 -0.0387,0.12322 -0.0792,0.24644 -0.12146,0.36965 l -0.734,2.13865 2.13865,0 -0.73401,-2.13865" id="1J"/>
   <path d="m 226.11762,339.40098 0,6.23641 -1.55778,0 0,-6.23641 -2.40269,0 0,-1.20398 6.36843,0 0,1.20398 -2.40796,0" id="1K"/>
   <path d="m 229.37048,345.63739 0,-7.44039 5.85093,0 0,1.20398 -4.29315,0 0,1.86934 3.97103,0 0,1.20398 -3.97103,0 0,1.95911 4.50965,0 0,1.20398 -6.06743,0" id="1L"/>
  </g>
  <g id="X">
   <path d="m 23.090432,343.49346 c -7e-6,0.33796 -0.06161,0.646 -0.184822,0.92411 -0.123221,0.27459 -0.315083,0.51046 -0.575587,0.7076 -0.256996,0.19714 -0.587915,0.35028 -0.992757,0.45941 -0.401331,0.10562 -0.880107,0.15842 -1.436328,0.15842 -0.492861,0 -0.927632,-0.044 -1.304313,-0.13201 -0.376687,-0.088 -0.700564,-0.21827 -0.971635,-0.39077 -0.267552,-0.1725 -0.485817,-0.38548 -0.654796,-0.63895 -0.16546,-0.25699 -0.285154,-0.55095 -0.359083,-0.88187 l 1.504977,-0.24819 c 0.04224,0.16546 0.10385,0.31684 0.184822,0.45414 0.08097,0.13729 0.19186,0.25699 0.332679,0.35908 0.144334,0.0986 0.322115,0.17602 0.533342,0.23235 0.214743,0.0528 0.473493,0.0792 0.776252,0.0792 0.528057,0 0.931144,-0.0792 1.209262,-0.23763 0.281627,-0.16194 0.422444,-0.41365 0.422449,-0.75513 -5e-6,-0.20418 -0.05633,-0.3714 -0.16898,-0.50166 -0.112658,-0.13025 -0.262275,-0.23763 -0.448852,-0.32212 -0.186587,-0.0845 -0.401332,-0.15489 -0.644236,-0.21122 -0.242912,-0.0563 -0.496382,-0.11089 -0.760409,-0.1637 -0.211228,-0.0493 -0.422453,-0.10033 -0.633675,-0.15314 -0.211227,-0.0528 -0.41365,-0.11617 -0.607271,-0.1901 -0.190104,-0.0739 -0.367885,-0.16194 -0.533343,-0.26403 -0.16546,-0.10209 -0.309797,-0.22707 -0.43301,-0.37493 -0.119695,-0.15137 -0.214746,-0.32739 -0.285154,-0.52806 -0.06689,-0.20066 -0.100332,-0.43653 -0.100332,-0.7076 0,-0.36964 0.07393,-0.68648 0.221786,-0.95051 0.147857,-0.26403 0.35204,-0.47877 0.612552,-0.64424 0.26403,-0.16897 0.577346,-0.29219 0.939951,-0.36964 0.362599,-0.0774 0.758645,-0.11617 1.188139,-0.11618 0.485813,10e-6 0.901221,0.0387 1.246226,0.11618 0.348516,0.0739 0.63895,0.18835 0.871303,0.34324 0.235861,0.1549 0.420683,0.35029 0.554465,0.58615 0.137289,0.23235 0.237621,0.50518 0.300995,0.81849 l -1.510257,0.20595 c -0.07745,-0.32036 -0.235873,-0.5615 -0.475256,-0.72345 -0.235872,-0.16193 -0.575592,-0.2429 -1.01916,-0.24291 -0.274595,1e-5 -0.503422,0.0247 -0.68648,0.0739 -0.179544,0.0458 -0.323881,0.10914 -0.433011,0.1901 -0.105615,0.081 -0.181304,0.17603 -0.227067,0.28516 -0.04577,0.10562 -0.06865,0.21827 -0.06865,0.33796 -2e-6,0.18306 0.044,0.33444 0.132016,0.45413 0.08801,0.11618 0.211222,0.21475 0.369643,0.29572 0.158416,0.0774 0.346758,0.14434 0.565026,0.20066 0.221783,0.0528 0.464691,0.10738 0.728726,0.1637 0.232343,0.0493 0.46293,0.10209 0.691761,0.15842 0.228822,0.0528 0.447088,0.11617 0.654797,0.1901 0.207699,0.0739 0.401322,0.1637 0.580868,0.26931 0.179535,0.10562 0.334433,0.23587 0.464695,0.39077 0.133769,0.15138 0.237621,0.33268 0.311556,0.5439 0.07744,0.21123 0.116167,0.46118 0.116174,0.74985" id="1M"/>
   <path d="m 31.481337,341.88287 c -8e-6,0.58087 -0.08626,1.10893 -0.25875,1.58419 -0.172508,0.47525 -0.420697,0.88186 -0.744568,1.21982 -0.323884,0.33796 -0.719931,0.59847 -1.188139,0.78153 -0.4647,0.18306 -0.991001,0.27459 -1.578906,0.27459 -0.623116,0 -1.16878,-0.0951 -1.636992,-0.28515 -0.464696,-0.19362 -0.853702,-0.46117 -1.167017,-0.80266 -0.313318,-0.34499 -0.549185,-0.75336 -0.707603,-1.2251 -0.154899,-0.47173 -0.232348,-0.98747 -0.232347,-1.54722 -1e-6,-0.58086 0.08097,-1.10541 0.242908,-1.57363 0.165459,-0.4682 0.406607,-0.86601 0.723445,-1.19342 0.320356,-0.33091 0.712882,-0.58438 1.177579,-0.7604 0.468211,-0.17954 1.005074,-0.26931 1.610589,-0.26932 0.605506,1e-5 1.140608,0.0898 1.605308,0.26932 0.468209,0.17954 0.860734,0.43477 1.177578,0.76569 0.320351,0.33092 0.563259,0.73049 0.728726,1.1987 0.165451,0.4647 0.248181,0.98572 0.248189,1.56306 m -1.589467,0 c -6e-6,-0.39076 -0.04753,-0.7428 -0.142576,-1.05612 -0.09154,-0.31684 -0.228833,-0.58791 -0.411889,-0.81322 -0.183067,-0.2253 -0.410133,-0.3978 -0.6812,-0.5175 -0.267556,-0.12321 -0.579112,-0.18482 -0.934669,-0.18482 -0.362607,0 -0.681204,0.0616 -0.955793,0.18482 -0.271074,0.1197 -0.498141,0.2922 -0.6812,0.5175 -0.183063,0.22531 -0.320359,0.49638 -0.411888,0.81322 -0.09153,0.31332 -0.137298,0.66536 -0.137296,1.05612 -2e-6,0.38725 0.04576,0.74281 0.137296,1.06668 0.09505,0.32036 0.234105,0.59672 0.417169,0.82906 0.183059,0.23235 0.410125,0.41365 0.6812,0.54391 0.271068,0.13025 0.584385,0.19538 0.93995,0.19538 0.3802,0 0.707599,-0.0651 0.982196,-0.19538 0.274586,-0.13378 0.499893,-0.31684 0.675919,-0.54919 0.179535,-0.23586 0.31155,-0.51398 0.396047,-0.83434 0.08448,-0.32387 0.126728,-0.67591 0.126734,-1.05612" id="1N"/>
   <path d="m 35.748077,345.743 c -0.464698,0 -0.890667,-0.0546 -1.27791,-0.1637 -0.387247,-0.11265 -0.721686,-0.28515 -1.003317,-0.5175 -0.278114,-0.23586 -0.49638,-0.53686 -0.654797,-0.90298 -0.154899,-0.36612 -0.232348,-0.80266 -0.232348,-1.3096 l 0,-4.65222 1.557783,0 0,4.53077 c -2e-6,0.31332 0.03872,0.58439 0.116174,0.81321 0.07745,0.22531 0.18834,0.41189 0.332679,0.55975 0.144334,0.14434 0.318594,0.25171 0.522781,0.32212 0.204181,0.0669 0.431247,0.10033 0.6812,0.10033 0.253466,0 0.485813,-0.0352 0.697042,-0.10561 0.214741,-0.0739 0.397802,-0.18658 0.549185,-0.33796 0.154893,-0.15138 0.274586,-0.34324 0.359082,-0.57559 0.08448,-0.23235 0.126729,-0.5087 0.126735,-0.82906 l 0,-4.47796 1.557783,0 0,4.57301 c -8e-6,0.51047 -0.08274,0.95228 -0.24819,1.32544 -0.165466,0.37316 -0.396053,0.68296 -0.691761,0.92939 -0.29572,0.24291 -0.647761,0.42421 -1.056124,0.5439 -0.404852,0.11618 -0.850184,0.17426 -1.335997,0.17426" id="1O"/>
   <path d="m 44.999725,345.63739 -3.242301,-5.72947 c 0.0176,0.1549 0.03344,0.3098 0.04753,0.46469 0.01408,0.13378 0.02464,0.27812 0.03168,0.43301 0.01056,0.15491 0.01584,0.30276 0.01584,0.44357 l 0,4.3882 -1.383523,0 0,-7.44039 1.779569,0 3.289826,5.77699 c -0.01761,-0.14785 -0.03345,-0.30275 -0.04753,-0.46469 -0.01409,-0.13729 -0.02641,-0.29219 -0.03697,-0.46469 -0.007,-0.1725 -0.01057,-0.34676 -0.01056,-0.52279 l 0,-4.32482 1.383523,0 0,7.44039 -1.827095,0" id="1P"/>
   <path d="m 54.916729,341.86175 c -7e-6,0.61959 -0.0933,1.16526 -0.279873,1.63699 -0.186589,0.46822 -0.441818,0.86074 -0.76569,1.17758 -0.323884,0.31684 -0.707608,0.55622 -1.151175,0.71816 -0.440056,0.16194 -0.915312,0.24291 -1.425767,0.24291 l -3.009954,0 0,-7.44039 2.693116,0 c 0.577344,0 1.107166,0.0722 1.589467,0.2165 0.482291,0.14435 0.8977,0.36613 1.246226,0.66536 0.348515,0.29924 0.619586,0.67945 0.813216,1.14061 0.193615,0.46118 0.290427,1.00861 0.290434,1.64228 m -1.568344,0 c -6e-6,-0.43301 -0.05985,-0.80441 -0.179541,-1.11421 -0.116179,-0.3098 -0.279878,-0.56326 -0.491098,-0.76041 -0.21123,-0.20066 -0.464699,-0.34852 -0.760409,-0.44358 -0.292199,-0.095 -0.616076,-0.14257 -0.971634,-0.14257 l -1.10365,0 0,5.03243 1.320155,0 c 0.313313,0 0.601987,-0.0546 0.866022,-0.1637 0.267547,-0.10913 0.498133,-0.27107 0.691761,-0.48582 0.197138,-0.21826 0.350276,-0.48757 0.459414,-0.80793 0.112647,-0.32036 0.168974,-0.69176 0.16898,-1.11421" id="1Q"/>
  </g>
  <g id="Y">
   <path d="m 22.731349,374.85217 c -7e-6,0.32036 -0.05457,0.63016 -0.163699,0.92939 -0.105619,0.29572 -0.269318,0.55799 -0.491098,0.78681 -0.221792,0.22883 -0.503424,0.41189 -0.844899,0.54919 -0.341485,0.13378 -0.746332,0.20066 -1.214542,0.20066 l -1.848217,0 0,2.61919 -1.557783,0 0,-7.4404 3.342632,0 c 0.475251,1e-5 0.887139,0.0581 1.235665,0.17427 0.348515,0.11266 0.637189,0.27283 0.866022,0.48053 0.22882,0.20771 0.3978,0.4559 0.506939,0.74457 0.112647,0.28868 0.168973,0.60728 0.16898,0.95579 m -1.568344,0.0264 c -5e-6,-0.38372 -0.116179,-0.67415 -0.348521,-0.8713 -0.228831,-0.20066 -0.573832,-0.30099 -1.035001,-0.30099 l -1.610589,0 0,2.41324 1.652834,0 c 0.232343,0 0.431246,-0.0299 0.59671,-0.0898 0.168975,-0.0598 0.308031,-0.14433 0.417169,-0.25347 0.112648,-0.10913 0.195377,-0.23938 0.248189,-0.39077 0.0528,-0.15489 0.0792,-0.32387 0.07921,-0.50694" id="1R"/>
   <path d="m 28.946639,379.93741 -1.726763,-2.82513 -1.827095,0 0,2.82513 -1.557782,0 0,-7.4404 3.717556,0 c 0.46469,1e-5 0.869537,0.0528 1.214543,0.15842 0.348515,0.1021 0.638948,0.24996 0.871302,0.44358 0.23234,0.1901 0.404841,0.42245 0.517501,0.69704 0.116166,0.27108 0.174253,0.57735 0.17426,0.91883 -7e-6,0.27811 -0.04225,0.53334 -0.126735,0.76569 -0.08098,0.22883 -0.19539,0.43301 -0.34324,0.61255 -0.144344,0.17954 -0.316844,0.33092 -0.517501,0.45413 -0.200669,0.1197 -0.418935,0.20771 -0.654797,0.26403 l 2.011917,3.12613 -1.753166,0 m -0.184822,-5.15917 c -6e-6,-0.36259 -0.1197,-0.63191 -0.359082,-0.80793 -0.235873,-0.17602 -0.573832,-0.26403 -1.013879,-0.26403 l -1.996075,0 0,2.19673 2.03832,0 c 0.232343,1e-5 0.431246,-0.0264 0.59671,-0.0792 0.168975,-0.0563 0.306271,-0.13378 0.411888,-0.23235 0.109128,-0.10209 0.190097,-0.22178 0.242909,-0.35908 0.0528,-0.1373 0.0792,-0.28867 0.07921,-0.45414" id="1S"/>
   <path d="m 38.884766,376.18289 c -8e-6,0.58087 -0.08626,1.10893 -0.258751,1.58418 -0.172508,0.47526 -0.420696,0.88187 -0.744567,1.21983 -0.323885,0.33796 -0.719931,0.59847 -1.18814,0.78153 -0.4647,0.18306 -0.991001,0.27459 -1.578905,0.27459 -0.623117,0 -1.16878,-0.0951 -1.636992,-0.28515 -0.464697,-0.19362 -0.853702,-0.46118 -1.167017,-0.80266 -0.313318,-0.345 -0.549186,-0.75336 -0.707603,-1.2251 -0.154899,-0.47173 -0.232348,-0.98747 -0.232348,-1.54722 0,-0.58087 0.08097,-1.10541 0.242909,-1.57363 0.165458,-0.46821 0.406607,-0.86601 0.723445,-1.19342 0.320356,-0.33091 0.712881,-0.58438 1.177578,-0.76041 0.468212,-0.17953 1.005074,-0.2693 1.610589,-0.26931 0.605506,10e-6 1.140609,0.0898 1.605309,0.26931 0.468208,0.17955 0.860734,0.43478 1.177578,0.76569 0.32035,0.33093 0.563258,0.73049 0.728725,1.1987 0.165452,0.4647 0.248182,0.98572 0.24819,1.56307 m -1.589467,0 c -6e-6,-0.39076 -0.04753,-0.74281 -0.142577,-1.05613 -0.09154,-0.31683 -0.228833,-0.5879 -0.411888,-0.81321 -0.183067,-0.2253 -0.410134,-0.3978 -0.6812,-0.5175 -0.267556,-0.12321 -0.579113,-0.18482 -0.93467,-0.18482 -0.362606,0 -0.681203,0.0616 -0.955792,0.18482 -0.271075,0.1197 -0.498141,0.2922 -0.6812,0.5175 -0.183064,0.22531 -0.32036,0.49638 -0.411888,0.81321 -0.09153,0.31332 -0.137299,0.66537 -0.137296,1.05613 -3e-6,0.38725 0.04576,0.74281 0.137296,1.06668 0.09505,0.32036 0.234105,0.59672 0.417169,0.82906 0.183058,0.23235 0.410125,0.41365 0.6812,0.5439 0.271068,0.13026 0.584384,0.19539 0.93995,0.19539 0.3802,0 0.707598,-0.0651 0.982195,-0.19539 0.274587,-0.13377 0.499893,-0.31683 0.67592,-0.54918 0.179535,-0.23587 0.31155,-0.51398 0.396046,-0.83434 0.08448,-0.32387 0.126729,-0.67591 0.126735,-1.05612" id="1T"/>
   <path d="m 46.689523,376.16177 c -8e-6,0.61959 -0.0933,1.16525 -0.279873,1.63699 -0.186589,0.46821 -0.441819,0.86074 -0.76569,1.17758 -0.323884,0.31683 -0.707609,0.55622 -1.151175,0.71816 -0.440057,0.16194 -0.915312,0.24291 -1.425768,0.24291 l -3.009953,0 0,-7.4404 2.693116,0 c 0.577344,1e-5 1.107166,0.0722 1.589467,0.21651 0.482291,0.14434 0.897699,0.36613 1.246226,0.66536 0.348514,0.29924 0.619586,0.67944 0.813216,1.14061 0.193615,0.46118 0.290426,1.00861 0.290434,1.64228 m -1.568344,0 c -6e-6,-0.43301 -0.05985,-0.80441 -0.179541,-1.11422 -0.11618,-0.30979 -0.279879,-0.56326 -0.491098,-0.7604 -0.21123,-0.20066 -0.464699,-0.34852 -0.760409,-0.44358 -0.292199,-0.095 -0.616076,-0.14257 -0.971634,-0.14257 l -1.10365,0 0,5.03243 1.320155,0 c 0.313313,0 0.601986,-0.0546 0.866022,-0.1637 0.267546,-0.10913 0.498133,-0.27107 0.691761,-0.48582 0.197138,-0.21826 0.350275,-0.48757 0.459414,-0.80793 0.112647,-0.32036 0.168974,-0.69176 0.16898,-1.11421" id="1U"/>
   <path d="m 47.882942,379.93741 0,-1.61059 1.5261,0 0,1.61059 -1.5261,0" id="1V"/>
   <path d="m 54.346421,378.81792 c 0.29219,0 0.543899,-0.0405 0.755128,-0.12146 0.21474,-0.0845 0.399562,-0.19362 0.554465,-0.3274 0.158413,-0.13377 0.288669,-0.28515 0.390766,-0.45413 0.105607,-0.16898 0.191857,-0.33972 0.258751,-0.51222 l 1.357119,0.51222 c -0.10914,0.26755 -0.251717,0.52982 -0.42773,0.78681 -0.176028,0.25699 -0.396053,0.48406 -0.660078,0.6812 -0.264037,0.19715 -0.579114,0.35733 -0.945231,0.48054 -0.362607,0.11969 -0.790337,0.17954 -1.28319,0.17954 -0.644239,0 -1.202224,-0.0951 -1.673957,-0.28515 -0.471737,-0.19362 -0.862503,-0.46118 -1.172297,-0.80266 -0.306277,-0.345 -0.535104,-0.75336 -0.686481,-1.2251 -0.147858,-0.47173 -0.221787,-0.98747 -0.221786,-1.54722 -1e-6,-0.58087 0.07393,-1.10541 0.221786,-1.57363 0.151377,-0.46821 0.378443,-0.86601 0.6812,-1.19342 0.302754,-0.33091 0.684718,-0.58438 1.145894,-0.76041 0.464692,-0.17953 1.010356,-0.2693 1.636993,-0.26931 0.485812,10e-6 0.910021,0.0511 1.272629,0.15314 0.366117,0.1021 0.681194,0.24644 0.945231,0.43301 0.267545,0.18307 0.48757,0.40133 0.660078,0.6548 0.176013,0.24995 0.313309,0.52631 0.411888,0.82905 l -1.372961,0.37493 c -0.04929,-0.15841 -0.124981,-0.30979 -0.227067,-0.45413 -0.102098,-0.14786 -0.232353,-0.27811 -0.390766,-0.39077 -0.154903,-0.11265 -0.337965,-0.20242 -0.549184,-0.26931 -0.21123,-0.0704 -0.450618,-0.10561 -0.718165,-0.10561 -0.376688,0 -0.700565,0.0616 -0.971634,0.18482 -0.271074,0.1197 -0.49462,0.2922 -0.670638,0.5175 -0.172503,0.22531 -0.300998,0.49638 -0.385486,0.81321 -0.08097,0.31332 -0.121456,0.66537 -0.121454,1.05613 -2e-6,0.38725 0.04048,0.74281 0.121454,1.06668 0.08449,0.32036 0.214743,0.59672 0.390766,0.82906 0.176018,0.23235 0.401324,0.41365 0.67592,0.5439 0.278109,0.13026 0.610787,0.19539 0.998037,0.19539" id="1W"/>
   <path d="m 65.921541,376.18289 c -8e-6,0.58087 -0.08626,1.10893 -0.25875,1.58418 -0.172508,0.47526 -0.420697,0.88187 -0.744568,1.21983 -0.323884,0.33796 -0.71993,0.59847 -1.188139,0.78153 -0.4647,0.18306 -0.991001,0.27459 -1.578905,0.27459 -0.623117,0 -1.168781,-0.0951 -1.636993,-0.28515 -0.464696,-0.19362 -0.853702,-0.46118 -1.167017,-0.80266 -0.313318,-0.345 -0.549185,-0.75336 -0.707603,-1.2251 -0.154898,-0.47173 -0.232347,-0.98747 -0.232347,-1.54722 0,-0.58087 0.08097,-1.10541 0.242908,-1.57363 0.165459,-0.46821 0.406607,-0.86601 0.723445,-1.19342 0.320356,-0.33091 0.712882,-0.58438 1.177579,-0.76041 0.468212,-0.17953 1.005074,-0.2693 1.610589,-0.26931 0.605506,10e-6 1.140608,0.0898 1.605308,0.26931 0.468209,0.17955 0.860735,0.43478 1.177578,0.76569 0.320351,0.33093 0.563259,0.73049 0.728726,1.1987 0.165452,0.4647 0.248181,0.98572 0.248189,1.56307 m -1.589466,0 c -7e-6,-0.39076 -0.04753,-0.74281 -0.142577,-1.05613 -0.09154,-0.31683 -0.228833,-0.5879 -0.411889,-0.81321 -0.183067,-0.2253 -0.410133,-0.3978 -0.6812,-0.5175 -0.267556,-0.12321 -0.579112,-0.18482 -0.934669,-0.18482 -0.362607,0 -0.681204,0.0616 -0.955792,0.18482 -0.271075,0.1197 -0.498142,0.2922 -0.6812,0.5175 -0.183064,0.22531 -0.32036,0.49638 -0.411889,0.81321 -0.09153,0.31332 -0.137298,0.66537 -0.137296,1.05613 -2e-6,0.38725 0.04576,0.74281 0.137296,1.06668 0.09505,0.32036 0.234105,0.59672 0.417169,0.82906 0.183059,0.23235 0.410125,0.41365 0.6812,0.5439 0.271068,0.13026 0.584385,0.19539 0.939951,0.19539 0.3802,0 0.707598,-0.0651 0.982195,-0.19539 0.274587,-0.13377 0.499893,-0.31683 0.675919,-0.54918 0.179535,-0.23587 0.311551,-0.51398 0.396047,-0.83434 0.08448,-0.32387 0.126728,-0.67591 0.126735,-1.05612" id="1X"/>
   <path d="m 67.104399,379.93741 0,-1.61059 1.526099,0 0,1.61059 -1.526099,0" id="1Y"/>
  </g>
 </g>
 <path d="m 375.57155,124.16074 a 5.27623,5.0364013 0 1 1 -10.55246,0 5.27623,5.0364013 0 1 1 10.55246,0 z" transform="matrix(0.3005144,-6.7530702e-4,6.7530702e-4,0.3005144,4.7149389,2.2064826)" id="7" fill="#888"/>
 <path d="M 47.8125,4.75 C 35.555827,4.8173152 24.391015,12.772067 20.84375,25.09375 l -4.625,16.03125 336.0625,96.6875 c 0.012,0.002 0.0197,-0.002 0.0312,0 0.13585,0.0282 0.24021,0.0639 0.34375,0.0937 14.89466,4.28799 29.68872,-1.9224 33.09375,-13.75 1.40221,-4.87071 0.67106,-9.95913 -1.71875,-14.5625 A 0.3924843,0.3924843 0 0 1 384,109.5 0.3924843,0.3924843 0 0 1 383.9688,109.4063 C 380.48742,102.81072 374.4262,97.558373 366.625,95.3125 L 56,5.875 C 54.10704,5.3300399 52.165844,4.9966993 50.28125,4.84375 49.456387,4.7768061 48.629612,4.7455123 47.8125,4.75 z" transform="matrix(0.31000088,-6.9662252e-4,6.9662252e-4,0.31000088,2.7238548,2.5065516)" id="8" fill="none" stroke="url(#E)"/>
 <path d="M 18.28125,4.4375 C 17.722151,4.3881852 17.157681,4.4055431 16.625,4.46875 13.403836,4.8509669 10.601471,7.0949876 9.65625,10.40625 l -1.3125,4.5 103.75,29.59375 0.0625,0.03125 c 0.0415,0.0099 0.0955,0.02283 0.125,0.03125 4.4226,1.262452 8.69615,-0.605362 9.65625,-3.96875 0.3966,-1.389353 0.1944,-2.825993 -0.5,-4.15625 -1.01933,-1.962431 -2.80309,-3.524694 -5.125,-4.1875 L 19.96875,4.75 C 19.409313,4.5903056 18.840349,4.4868148 18.28125,4.4375 z" id="9" fill="none" stroke="url(#G)"/>
</svg>
