<?xml version="1.0" encoding="UTF-8" standalone="no"?>
<svg
   viewBox="0 0 42 42"
   width="84"
   height="84"
   version="1.1"
   id="svg52"
   sodipodi:docname="icons8-ffmpeg96.svg"
   xmlns:inkscape="http://www.inkscape.org/namespaces/inkscape"
   xmlns:sodipodi="http://sodipodi.sourceforge.net/DTD/sodipodi-0.dtd"
   xmlns="http://www.w3.org/2000/svg"
   xmlns:svg="http://www.w3.org/2000/svg">
  <defs
     id="defs56" />
  <sodipodi:namedview
     id="namedview54"
     pagecolor="#ffffff"
     bordercolor="#000000"
     borderopacity="0.25"
     inkscape:showpageshadow="2"
     inkscape:pageopacity="0.0"
     inkscape:pagecheckerboard="true"
     inkscape:deskcolor="#d1d1d1"
     showgrid="false"
     inkscape:lockguides="false" />
  <path
     fill="#388e3c"
     d="m 36.499899,38.598566 h -8.999941 c -0.999994,0 -1.899988,-0.6 -2.299985,-1.5 -0.399998,-0.9 -0.199999,-2 0.499997,-2.7 l 8.299946,-8.3 v -3.9 l -15.699898,15.7 c -0.499997,0.5 -1.099993,0.7 -1.799989,0.7 H 5.5001011 c -0.9999935,0 -1.8999876,-0.6 -2.2999851,-1.5 -0.3999973,-0.9 -0.1999986,-2 0.4999968,-2.7 L 30.499938,7.5985664 H 26.599964 L 7.3000892,26.898566 c -0.6999954,0.7 -1.7999881,0.9 -2.6999822,0.5 -0.9999935,-0.4 -1.5999896,-1.3 -1.5999896,-2.3 v -11 c 0,-0.7 0.2999981,-1.3 0.6999954,-1.8 L 8.4000822,7.5985664 H 5.4001018 c -1.2999916,0 -2.3999844,-1.1 -2.3999844,-2.5 0,-1.4000001 1.0999928,-2.5 2.4999837,-2.5 h 8.9999409 c 0.999994,0 1.899987,0.6 2.299986,1.5 0.399997,0.9 0.199998,2 -0.499997,2.7 L 8.0000852,15.098566 v 3.9 L 23.699982,3.2985664 c 0.499997,-0.4 1.099993,-0.7 1.799989,-0.7 h 10.999928 c 0.999994,0 1.899988,0.6 2.299985,1.5 0.399997,0.9 0.199999,2 -0.499996,2.7 L 11.500061,33.598566 h 3.899975 l 19.299876,-19.3 c 0.699994,-0.7 1.799987,-0.9 2.699982,-0.5 0.899994,0.4 1.49999,1.3 1.49999,2.3 v 11 c 0,0.7 -0.299998,1.3 -0.699996,1.8 l -4.699969,4.7 h 2.99998 c 1.399992,0 2.499984,1.1 2.499984,2.5 0,1.4 -1.099992,2.5 -2.499984,2.5 z"
     id="path50"
     style="stroke-width:0.999999" />
</svg>
