<?xml version="1.0" encoding="UTF-8"?>
<svg version="1.1" xmlns="http://www.w3.org/2000/svg" width="512" height="512">
<path d="M0 0 C0.66128354 -0.00495952 1.32256707 -0.00991903 2.0038895 -0.01502883 C4.22956835 -0.02802787 6.45465148 -0.01958704 8.68034554 -0.01129913 C10.28819809 -0.01618602 11.89604712 -0.02237488 13.50389016 -0.02975702 C17.92993538 -0.04620548 22.35580306 -0.04382868 26.78186822 -0.03838205 C31.55225913 -0.03571788 36.32260206 -0.05023213 41.09297371 -0.06247711 C50.44177298 -0.08355939 59.79051027 -0.08807036 69.13933049 -0.08628923 C76.73644618 -0.08498298 84.33354249 -0.08877869 91.93065453 -0.09621429 C94.11676252 -0.09831343 96.30287051 -0.10041103 98.48897851 -0.10250711 C99.57697696 -0.10355064 100.66497542 -0.10459417 101.78594352 -0.10566932 C122.37553173 -0.12458304 142.96508433 -0.12351805 163.55467762 -0.11669999 C182.40035044 -0.11112392 201.24588735 -0.13195073 220.0915284 -0.16506046 C239.43072796 -0.19877426 258.76986237 -0.21396866 278.10909188 -0.20934343 C288.97119975 -0.20709637 299.833182 -0.21237639 310.69526482 -0.23723602 C319.94259112 -0.25821934 329.18972292 -0.26187071 338.43705712 -0.24293643 C343.15682955 -0.23376017 347.87623906 -0.2326932 352.59598351 -0.25329208 C356.91525412 -0.27193493 361.23386287 -0.26757435 365.55310775 -0.24474627 C367.11701553 -0.24054349 368.68097339 -0.24481665 370.24482833 -0.25834221 C383.39498815 -0.36434521 383.39498815 -0.36434521 387.34007645 2.73445129 C390.82308478 7.14063321 390.57734017 11.09299624 390.56522179 16.46609211 C390.56727442 17.30350104 390.56932705 18.14090997 390.57144189 19.00369492 C390.57713574 21.83434883 390.57565171 24.66495444 390.57423592 27.4956131 C390.57681818 29.53570286 390.57983095 31.57579212 390.58323932 33.61588067 C390.59132878 39.2413005 390.59309997 44.86670759 390.59383678 50.49213254 C390.59568395 56.55155937 390.60322954 62.61097954 390.609972 68.67040253 C390.62427866 82.62008525 390.6300835 96.56976487 390.63466395 110.51945309 C390.63699884 117.41055418 390.64060135 124.30165444 390.64435932 131.19275488 C390.6571952 154.77469832 390.6679147 178.35664129 390.67136192 201.93858814 C390.67158356 203.41924757 390.67180534 204.899907 390.67202727 206.38056643 C390.67224792 207.86483128 390.6724684 209.34909612 390.67268872 210.83336097 C390.67313128 213.81112564 390.67357839 216.7888903 390.6740284 219.76665497 C390.67419248 220.87412585 390.67419248 220.87412585 390.67435988 222.00396988 C390.6779915 245.95039167 390.69391531 269.89678321 390.71721876 293.84319341 C390.74180296 319.1518897 390.75553409 344.46056869 390.75672984 369.76927727 C390.7569013 372.54637444 390.75711673 375.32347161 390.75736427 378.10056877 C390.75742004 378.78438422 390.75747581 379.46819967 390.75753327 380.1727368 C390.7586849 391.18713389 390.76971637 402.20149998 390.78425133 413.21588659 C390.79860249 424.28216123 390.80160817 435.34840442 390.79381135 446.41468803 C390.78989407 452.41230545 390.79088692 458.40981834 390.8048687 464.40742302 C390.81754298 469.89418259 390.81646733 475.38075841 390.80427799 480.86751749 C390.80230972 482.85608305 390.80545109 484.84466133 390.81412235 486.83320896 C390.82514023 489.52989947 390.81777988 492.2259329 390.80573082 494.92260456 C390.81332601 495.70013593 390.82092121 496.4776673 390.82874656 497.27876022 C390.78247202 502.05463727 390.24766271 505.47491151 387.43379402 509.38311005 C382.74584998 512.04848124 378.88174641 512.75809118 373.53971004 512.75784016 C372.8794309 512.76190088 372.21915176 512.76596161 371.53886417 512.77014539 C369.33466152 512.78006153 367.13110027 512.76868099 364.92691231 512.75733185 C363.32742126 512.76007346 361.72793202 512.7641264 360.12844723 512.7693755 C355.73950519 512.77995608 351.35076699 512.77183746 346.96183383 512.760625 C342.2263125 512.75178107 337.49081777 512.76022699 332.75529671 512.76648712 C323.4817613 512.77597536 314.20830371 512.7693754 304.93477408 512.75722418 C294.13981422 512.7436059 283.3448729 512.74524183 272.54990663 512.74735751 C253.29365714 512.75054732 234.03744465 512.73887926 214.78120613 512.71929169 C196.08588217 512.70027962 177.39060156 512.69320622 158.69526863 512.69878387 C138.34390864 512.70483762 117.99256771 512.70467263 97.6412093 512.69329804 C95.47252953 512.69209073 93.30384976 512.69088474 91.13516998 512.6896801 C90.06808707 512.68907656 89.00100416 512.68847302 87.9015854 512.68785119 C80.37224793 512.68396764 72.84291755 512.68436733 65.31357956 512.68626595 C56.14353611 512.68838499 46.97353067 512.68318566 37.80349795 512.66865239 C33.12254592 512.66139448 28.44164934 512.65734329 23.7606926 512.66189575 C19.47945676 512.66595831 15.19833565 512.66084638 10.91711726 512.64826968 C9.36477837 512.64533065 7.81242873 512.64579078 6.26009253 512.64991275 C4.15670817 512.65499274 2.05371166 512.64786796 -0.04964542 512.63758564 C-1.21994618 512.63671886 -2.39024693 512.63585209 -3.59601134 512.63495904 C-6.61713689 512.37879151 -8.16755331 512.21434817 -10.56620598 510.38311005 C-13.68616669 505.69027465 -13.99326956 501.40924396 -13.9437294 495.9309845 C-13.94808972 495.09011404 -13.95245005 494.24924358 -13.9569425 493.38289219 C-13.96791204 490.55837923 -13.95746876 487.73435305 -13.94715691 484.90984344 C-13.95061279 482.86716254 -13.95537689 480.8244835 -13.96133864 478.78180838 C-13.97388775 473.16311854 -13.96766044 467.54458114 -13.95837998 461.92589068 C-13.95160585 455.86855446 -13.96206259 449.81124486 -13.97031975 443.75391388 C-13.98290442 432.57167187 -13.98179181 421.3894788 -13.97358534 410.20723779 C-13.96604149 399.87728142 -13.96406726 389.5473429 -13.96765327 379.21738434 C-13.96788243 378.53242587 -13.96811159 377.8474674 -13.96834768 377.14175261 C-13.96928169 374.36134902 -13.97023688 371.58094543 -13.97122698 368.80054185 C-13.98040593 342.71318381 -13.97208049 316.6258568 -13.95593628 290.53850355 C-13.94169925 267.35664352 -13.94297312 244.17483293 -13.95731926 220.99297333 C-13.97337986 194.95361844 -13.97975499 168.91429097 -13.97048247 142.87493181 C-13.9695203 140.09956647 -13.96858178 137.32420111 -13.96765327 134.54883575 C-13.96741604 133.86545981 -13.96717881 133.18208386 -13.96693439 132.47799955 C-13.96352061 122.15401906 -13.96751533 111.83005838 -13.97509193 101.50608063 C-13.98366305 89.76836762 -13.98125016 78.03070183 -13.9652497 66.29299247 C-13.95735206 60.30143537 -13.95430084 54.30997873 -13.96419716 48.31842232 C-13.9731136 42.83732459 -13.96826159 37.3564208 -13.9522645 31.87534076 C-13.94890375 29.8888874 -13.95063967 27.90241776 -13.95789187 25.9159748 C-13.96697479 23.22215998 -13.95769796 20.52901508 -13.9437294 17.8352356 C-13.9507529 17.05856177 -13.9577764 16.28188794 -13.96501273 15.48167855 C-13.90540465 9.75553624 -12.79509724 5.70474279 -8.78909385 1.53205442 C-5.75327715 -0.0370686 -3.4141432 0.00454619 0 0 Z M11.43379402 30.38311005 C11.43379402 38.96311005 11.43379402 47.54311005 11.43379402 56.38311005 C23.64379402 56.38311005 35.85379402 56.38311005 48.43379402 56.38311005 C48.43379402 47.80311005 48.43379402 39.22311005 48.43379402 30.38311005 C36.22379402 30.38311005 24.01379402 30.38311005 11.43379402 30.38311005 Z M328.43379402 30.38311005 C328.43379402 38.96311005 328.43379402 47.54311005 328.43379402 56.38311005 C340.64379402 56.38311005 352.85379402 56.38311005 365.43379402 56.38311005 C365.43379402 47.80311005 365.43379402 39.22311005 365.43379402 30.38311005 C353.22379402 30.38311005 341.01379402 30.38311005 328.43379402 30.38311005 Z M11.43379402 101.38311005 C11.43379402 109.96311005 11.43379402 118.54311005 11.43379402 127.38311005 C23.64379402 127.38311005 35.85379402 127.38311005 48.43379402 127.38311005 C48.43379402 118.80311005 48.43379402 110.22311005 48.43379402 101.38311005 C36.22379402 101.38311005 24.01379402 101.38311005 11.43379402 101.38311005 Z M328.43379402 101.38311005 C328.43379402 109.96311005 328.43379402 118.54311005 328.43379402 127.38311005 C340.64379402 127.38311005 352.85379402 127.38311005 365.43379402 127.38311005 C365.43379402 118.80311005 365.43379402 110.22311005 365.43379402 101.38311005 C353.22379402 101.38311005 341.01379402 101.38311005 328.43379402 101.38311005 Z M11.43379402 172.38311005 C11.43379402 180.63311005 11.43379402 188.88311005 11.43379402 197.38311005 C23.64379402 197.38311005 35.85379402 197.38311005 48.43379402 197.38311005 C48.43379402 189.13311005 48.43379402 180.88311005 48.43379402 172.38311005 C36.22379402 172.38311005 24.01379402 172.38311005 11.43379402 172.38311005 Z M328.43379402 172.38311005 C328.43379402 180.63311005 328.43379402 188.88311005 328.43379402 197.38311005 C340.64379402 197.38311005 352.85379402 197.38311005 365.43379402 197.38311005 C365.43379402 189.13311005 365.43379402 180.88311005 365.43379402 172.38311005 C353.22379402 172.38311005 341.01379402 172.38311005 328.43379402 172.38311005 Z M11.43379402 243.38311005 C11.43379402 251.96311005 11.43379402 260.54311005 11.43379402 269.38311005 C23.64379402 269.38311005 35.85379402 269.38311005 48.43379402 269.38311005 C48.43379402 260.80311005 48.43379402 252.22311005 48.43379402 243.38311005 C36.22379402 243.38311005 24.01379402 243.38311005 11.43379402 243.38311005 Z M328.43379402 243.38311005 C328.43379402 251.96311005 328.43379402 260.54311005 328.43379402 269.38311005 C340.64379402 269.38311005 352.85379402 269.38311005 365.43379402 269.38311005 C365.43379402 260.80311005 365.43379402 252.22311005 365.43379402 243.38311005 C353.22379402 243.38311005 341.01379402 243.38311005 328.43379402 243.38311005 Z M11.43379402 314.38311005 C11.43379402 322.63311005 11.43379402 330.88311005 11.43379402 339.38311005 C23.64379402 339.38311005 35.85379402 339.38311005 48.43379402 339.38311005 C48.43379402 331.13311005 48.43379402 322.88311005 48.43379402 314.38311005 C36.22379402 314.38311005 24.01379402 314.38311005 11.43379402 314.38311005 Z M328.43379402 314.38311005 C328.43379402 322.63311005 328.43379402 330.88311005 328.43379402 339.38311005 C340.64379402 339.38311005 352.85379402 339.38311005 365.43379402 339.38311005 C365.43379402 331.13311005 365.43379402 322.88311005 365.43379402 314.38311005 C353.22379402 314.38311005 341.01379402 314.38311005 328.43379402 314.38311005 Z M11.43379402 385.38311005 C11.43379402 393.63311005 11.43379402 401.88311005 11.43379402 410.38311005 C23.64379402 410.38311005 35.85379402 410.38311005 48.43379402 410.38311005 C48.43379402 402.13311005 48.43379402 393.88311005 48.43379402 385.38311005 C36.22379402 385.38311005 24.01379402 385.38311005 11.43379402 385.38311005 Z M328.43379402 385.38311005 C328.43379402 393.63311005 328.43379402 401.88311005 328.43379402 410.38311005 C340.64379402 410.38311005 352.85379402 410.38311005 365.43379402 410.38311005 C365.43379402 402.13311005 365.43379402 393.88311005 365.43379402 385.38311005 C353.22379402 385.38311005 341.01379402 385.38311005 328.43379402 385.38311005 Z M11.43379402 455.38311005 C11.43379402 463.96311005 11.43379402 472.54311005 11.43379402 481.38311005 C23.64379402 481.38311005 35.85379402 481.38311005 48.43379402 481.38311005 C48.43379402 472.80311005 48.43379402 464.22311005 48.43379402 455.38311005 C36.22379402 455.38311005 24.01379402 455.38311005 11.43379402 455.38311005 Z M328.43379402 455.38311005 C328.43379402 463.96311005 328.43379402 472.54311005 328.43379402 481.38311005 C340.64379402 481.38311005 352.85379402 481.38311005 365.43379402 481.38311005 C365.43379402 472.80311005 365.43379402 464.22311005 365.43379402 455.38311005 C353.22379402 455.38311005 341.01379402 455.38311005 328.43379402 455.38311005 Z " fill="#263645" transform="translate(67.56620597839355,-0.38311004638671875)"/>
<path d="M0 0 C0.87054095 -0.00779995 1.7410819 -0.01559991 2.63800287 -0.02363622 C5.55479417 -0.04357862 8.470284 -0.02778291 11.38708496 -0.01205444 C13.47821312 -0.01882956 15.5693353 -0.02773209 17.66044617 -0.03860474 C23.34020527 -0.06141706 29.01951075 -0.05255353 34.69927788 -0.03670931 C40.64002592 -0.02406046 46.58073483 -0.03578761 52.52148438 -0.04364014 C62.49840273 -0.05273963 72.47513609 -0.0407408 82.45202637 -0.01693726 C93.99072231 0.01027444 105.52897653 0.0014605 117.06766176 -0.02606928 C126.9701327 -0.04875069 136.87247057 -0.05196513 146.77495909 -0.03887594 C152.69121766 -0.03107616 158.60726853 -0.03005449 164.52351379 -0.04655838 C170.08538325 -0.06098962 175.64668258 -0.0510055 181.20849037 -0.0220871 C183.25110743 -0.01546916 185.29377238 -0.01738598 187.33637047 -0.02840042 C190.12227677 -0.04203933 192.90634963 -0.02496037 195.69213867 0 C196.50293585 -0.01115361 197.31373303 -0.02230722 198.14909983 -0.03379881 C201.99872722 0.03323101 204.1449292 0.49745905 207.34725761 2.68593025 C209.82367562 6.33956446 210.04665321 9.18412931 209.98098755 13.4536438 C209.9887875 14.23434659 209.99658746 15.01504939 210.00462377 15.81940985 C210.02454821 18.43222255 210.00877834 21.04357941 209.99304199 23.65640259 C209.99981794 25.53078562 210.00872094 27.405162 210.01959229 29.27952576 C210.04239488 34.36841197 210.03354524 39.4567916 210.01769686 44.54568672 C210.0050429 49.8698374 210.01677657 55.19394455 210.02462769 60.51809692 C210.0337257 69.45929761 210.02173228 78.40029184 209.9979248 87.34146118 C209.97071331 97.68047999 209.97952736 108.01900582 210.00705683 118.35801268 C210.0297425 127.23289572 210.03295061 136.10763031 210.01986349 144.98253298 C210.01206602 150.28399519 210.01103559 155.58522563 210.02754593 160.88667297 C210.04198346 165.87074054 210.03198193 170.85417218 210.00307465 175.83817101 C209.99646002 177.66792939 209.99836794 179.49774125 210.00938797 181.32747841 C210.02304067 183.82444027 210.00593324 186.31936108 209.98098755 188.81619263 C209.99771796 189.9039871 209.99771796 189.9039871 210.01478636 191.01375723 C209.9390281 194.91940625 209.4525054 196.50593642 206.93138695 199.56108856 C202.66710286 202.98171229 199.46005039 202.78329669 194.17352295 202.78208923 C193.3185015 202.78576592 192.46348005 202.78944261 191.58254886 202.79323071 C188.70065648 202.80429547 185.81880012 202.80811611 182.93688965 202.81192017 C180.87738937 202.8181827 178.81789023 202.82482931 176.75839233 202.83183289 C171.15085266 202.84926199 165.54332152 202.85979982 159.93576145 202.86803842 C156.4344143 202.87318444 152.93306982 202.87926035 149.43172455 202.88554955 C138.48283011 202.90460681 127.53394245 202.9188369 116.58503461 202.92716151 C103.93524228 202.93693739 91.28562477 202.96326393 78.63589406 203.00366241 C68.86598791 203.0337959 59.09613195 203.04862776 49.32618022 203.05194253 C43.487529 203.05429614 37.64906443 203.06329714 31.81046295 203.0884037 C26.31769465 203.11164099 20.82523646 203.11593507 15.33243179 203.10564232 C13.31601812 203.10514579 11.29958941 203.11150047 9.2832222 203.12519836 C6.53062469 203.14285187 3.77914799 203.13584339 1.02655029 203.12266541 C0.22829244 203.13363465 -0.56996542 203.1446039 -1.3924129 203.15590554 C-6.50728522 203.09677238 -9.8440014 202.36992795 -13.65393066 198.63491821 C-14.27117455 195.76933044 -14.46392235 193.72839168 -14.40910339 190.86051941 C-14.41775777 190.07250393 -14.42641215 189.28448846 -14.43532878 188.47259372 C-14.45694143 185.82881066 -14.43561489 183.18712657 -14.41442871 180.54336548 C-14.420921 178.64942416 -14.42998135 176.75549016 -14.44142151 174.86157227 C-14.46453274 169.71468877 -14.44976517 164.56854537 -14.42695212 159.42168546 C-14.40805949 154.03880819 -14.41919091 148.65598136 -14.42585754 143.27308655 C-14.43220175 134.23171208 -14.41391056 125.19063466 -14.38122559 116.14932251 C-14.34374111 105.69386745 -14.34550375 95.2389755 -14.36826676 84.78349072 C-14.38921123 74.73048214 -14.38194365 64.67768182 -14.36194801 54.62467766 C-14.35395781 50.34443153 -14.35595861 46.06436135 -14.36597252 41.78412056 C-14.3765181 36.74341406 -14.3624126 31.70336413 -14.32922935 26.66276169 C-14.32101596 24.81204832 -14.32131339 22.96127485 -14.33070755 21.11056709 C-14.3421195 18.58507489 -14.32278152 16.06162958 -14.295578 13.53630066 C-14.31128524 12.43581016 -14.31128524 12.43581016 -14.32730979 11.31308752 C-14.25417491 7.67234626 -13.70807329 5.71492175 -11.65469837 2.6807642 C-7.76202521 0.02684009 -4.55306562 -0.06263356 0 0 Z " fill="#1CB4FD" transform="translate(158.6539306640625,29.365081787109375)"/>
<path d="M0 0 C0.87054095 -0.00779995 1.7410819 -0.01559991 2.63800287 -0.02363622 C5.55479417 -0.04357862 8.470284 -0.02778291 11.38708496 -0.01205444 C13.47821312 -0.01882956 15.5693353 -0.02773209 17.66044617 -0.03860474 C23.34020527 -0.06141706 29.01951075 -0.05255353 34.69927788 -0.03670931 C40.64002592 -0.02406046 46.58073483 -0.03578761 52.52148438 -0.04364014 C62.49840273 -0.05273963 72.47513609 -0.0407408 82.45202637 -0.01693726 C93.99072231 0.01027444 105.52897653 0.0014605 117.06766176 -0.02606928 C126.9701327 -0.04875069 136.87247057 -0.05196513 146.77495909 -0.03887594 C152.69121766 -0.03107616 158.60726853 -0.03005449 164.52351379 -0.04655838 C170.08538325 -0.06098962 175.64668258 -0.0510055 181.20849037 -0.0220871 C183.25110743 -0.01546916 185.29377238 -0.01738598 187.33637047 -0.02840042 C190.12227677 -0.04203933 192.90634963 -0.02496037 195.69213867 0 C196.50293585 -0.01115361 197.31373303 -0.02230722 198.14909983 -0.03379881 C201.99872722 0.03323101 204.1449292 0.49745905 207.34725761 2.68593025 C209.82367562 6.33956446 210.04665321 9.18412931 209.98098755 13.4536438 C209.9887875 14.23434659 209.99658746 15.01504939 210.00462377 15.81940985 C210.02454821 18.43222255 210.00877834 21.04357941 209.99304199 23.65640259 C209.99981794 25.53078562 210.00872094 27.405162 210.01959229 29.27952576 C210.04239488 34.36841197 210.03354524 39.4567916 210.01769686 44.54568672 C210.0050429 49.8698374 210.01677657 55.19394455 210.02462769 60.51809692 C210.0337257 69.45929761 210.02173228 78.40029184 209.9979248 87.34146118 C209.97071331 97.68047999 209.97952736 108.01900582 210.00705683 118.35801268 C210.0297425 127.23289572 210.03295061 136.10763031 210.01986349 144.98253298 C210.01206602 150.28399519 210.01103559 155.58522563 210.02754593 160.88667297 C210.04198346 165.87074054 210.03198193 170.85417218 210.00307465 175.83817101 C209.99646002 177.66792939 209.99836794 179.49774125 210.00938797 181.32747841 C210.02304067 183.82444027 210.00593324 186.31936108 209.98098755 188.81619263 C209.99771796 189.9039871 209.99771796 189.9039871 210.01478636 191.01375723 C209.94185179 194.77383333 209.41666817 196.54030133 207.14586926 199.58363628 C204.04201902 201.8576816 202.70496231 202.26293487 198.91435242 202.27415466 C197.83368814 202.28944403 196.75302387 202.30473339 195.6396122 202.32048607 C194.46146132 202.31185854 193.28331043 202.30323101 192.06945801 202.29434204 C190.19171472 202.3100421 190.19171472 202.3100421 188.27603722 202.32605934 C184.82868333 202.35425281 181.38194883 202.35163577 177.93451428 202.34374118 C174.27196025 202.34071776 170.60960003 202.36632414 166.9471283 202.38859558 C159.9027691 202.42694409 152.85860782 202.43930607 145.81415385 202.44189912 C137.75379428 202.44561325 129.69357249 202.47291724 121.63327026 202.50185013 C111.29375674 202.53857766 100.95425689 202.56965351 90.61468506 202.58309937 C89.45844061 202.58462108 89.45844061 202.58462108 88.27883768 202.58617353 C87.13196804 202.58768061 87.13196804 202.58768061 85.96192932 202.58921814 C71.29956593 202.60864023 56.63897914 202.67715648 41.97729683 202.83022881 C36.8856626 202.88125116 31.79391746 202.91888344 26.70215893 202.95512867 C22.99479311 202.98232745 19.28786703 203.01713127 15.58078003 203.07061768 C11.64056274 203.1269236 7.70074197 203.14495646 3.76013184 203.15835571 C2.66067734 203.18095963 1.56122284 203.20356354 0.42845154 203.22685242 C-1.06324806 203.22267555 -1.06324806 203.22267555 -2.58508301 203.21841431 C-3.85030289 203.23054459 -3.85030289 203.23054459 -5.14108276 203.24291992 C-8.77217914 202.36434991 -11.30936671 200.47785744 -13.65393066 197.63491821 C-14.25919902 194.7384882 -14.46486973 192.66868984 -14.40910339 189.77822876 C-14.41775777 188.99344241 -14.42641215 188.20865606 -14.43532878 187.40008831 C-14.45690167 184.77322305 -14.4356344 182.14847929 -14.41442871 179.52163696 C-14.42092251 177.63740019 -14.42998395 175.75317077 -14.44142151 173.86895752 C-14.46451215 168.75312207 -14.44977783 163.63803219 -14.42695212 158.52222061 C-14.40804656 153.17004576 -14.41919281 147.81792129 -14.42585754 142.46572876 C-14.43219944 133.47740833 -14.41392135 124.48938686 -14.38122559 115.50112915 C-14.34373066 105.10756826 -14.34550941 94.71457376 -14.36826676 84.32098293 C-14.38921076 74.32510303 -14.38194466 64.32943258 -14.36194801 54.33355713 C-14.35395864 50.07843042 -14.35595757 45.82348071 -14.36597252 41.56835938 C-14.37651791 36.55800679 -14.36241319 31.54831475 -14.32922935 26.53806686 C-14.32101623 24.69864066 -14.32131308 22.85915398 -14.33070755 21.01973343 C-14.34212006 18.50961703 -14.32278088 16.00155981 -14.295578 13.49160767 C-14.30604949 12.7625204 -14.31652098 12.03343313 -14.32730979 11.28225231 C-14.25394269 7.6519798 -13.7034794 5.70806439 -11.65469837 2.68355751 C-7.76225041 0.02616359 -4.55447458 -0.06265294 0 0 Z " fill="#1BB5FE" transform="translate(158.6539306640625,279.3650817871094)"/>
<path d="M0 0 C1.84038849 -0.01030998 1.84038849 -0.01030998 3.71795654 -0.02082825 C5.06935736 -0.00313496 6.42075195 0.01503905 7.7721405 0.03364563 C9.20143077 0.03505666 10.63072466 0.03426304 12.06001282 0.03143311 C15.93387867 0.02999965 19.80696901 0.059377 23.68065476 0.09430289 C27.7311854 0.12557866 31.78173419 0.12849808 35.83236694 0.13442993 C43.49992865 0.14996485 51.16713352 0.19098834 58.83453816 0.24117738 C67.5647882 0.29708196 76.29505536 0.32456011 85.02543986 0.34965456 C102.9818177 0.40190468 120.93786349 0.48983993 138.89396667 0.60127258 C137.29141245 5.48548173 135.66956206 10.34350787 133.7877655 15.12886047 C133.20386551 16.61846786 133.20386551 16.61846786 132.60816956 18.13816833 C132.19330292 19.1894693 131.77843628 20.24077026 131.35099792 21.32392883 C130.91099457 22.44403351 130.47099121 23.56413818 130.01765442 24.71818542 C128.83013845 27.73921085 127.64045704 30.75937079 126.44952011 33.77904892 C125.69888858 35.68299411 124.9491322 37.58728164 124.19966125 39.49168396 C117.69058468 56.03076919 111.14104153 72.55316618 104.52189636 89.04853821 C97.61960865 106.2543625 90.77543064 123.4832535 83.93063736 140.71200943 C82.97094963 143.12732233 82.01098129 145.54252351 81.05091858 147.95768738 C73.95056749 165.82024864 66.86734931 183.6886485 59.89396667 201.60127258 C51.22737501 201.67079154 42.56087936 201.72409333 33.89406967 201.7567091 C29.86968383 201.77236328 25.8454888 201.79359678 21.82121277 201.82759094 C17.93734614 201.86019361 14.05366302 201.87812746 10.1696701 201.88590431 C8.6880886 201.89144623 7.2065171 201.9022683 5.72501373 201.91846275 C3.6492749 201.94024987 1.5742937 201.94323909 -0.50154114 201.94184875 C-1.68290649 201.94851059 -2.86427185 201.95517242 -4.08143616 201.96203613 C-7.57164361 201.54573619 -8.70719252 201.14680223 -11.10603333 198.60127258 C-11.50941735 195.91607548 -11.65067896 193.63507865 -11.62069702 190.9471283 C-11.62764255 190.15996724 -11.63458808 189.37280619 -11.64174408 188.56179178 C-11.66008919 185.91532417 -11.64972923 183.26974543 -11.63948059 180.62324524 C-11.64653536 178.72945481 -11.6552785 176.83567003 -11.66558838 174.94189453 C-11.68814371 169.79098237 -11.68512803 164.64037659 -11.67626691 159.48943377 C-11.67116613 155.19260065 -11.6784423 150.89582557 -11.68573898 146.59899843 C-11.70275807 136.4629864 -11.69915257 126.32712484 -11.68244934 116.19111633 C-11.66553068 105.72832116 -11.68135461 95.26594326 -11.71367222 84.80319369 C-11.74035115 75.82645247 -11.74764856 66.84984128 -11.73915714 57.8730644 C-11.73422239 52.50896218 -11.73647298 47.14511101 -11.75694466 41.78104019 C-11.7752747 36.73628549 -11.76937573 31.69213167 -11.74474525 26.64740944 C-11.73972861 24.79506926 -11.74324921 22.94268353 -11.75589371 21.09037971 C-11.77178439 18.56268696 -11.75691277 16.03698247 -11.73422241 13.50938416 C-11.74605814 12.7750417 -11.75789387 12.04069925 -11.77008826 11.28410399 C-11.70156602 7.53089034 -11.18084286 5.70378653 -8.94839859 2.64459515 C-5.62734662 0.25715378 -4.05070571 -0.01753552 0 0 Z " fill="#B2F0FE" transform="translate(156.1060333251953,29.398727416992188)"/>
<path d="M0 0 C1.29461655 0.00222061 2.58923309 0.00444122 3.92308044 0.00672913 C4.99131546 0.00651009 4.99131546 0.00651009 6.08113098 0.00628662 C8.4457143 0.00698581 10.81021979 0.01477846 13.17478943 0.02259827 C14.81003781 0.02446243 16.44528675 0.02588634 18.08053589 0.02688599 C22.39273103 0.03071134 26.7048927 0.04054177 31.01707458 0.05158997 C35.41404263 0.06180371 39.81101607 0.06638353 44.20799255 0.07142639 C52.84147149 0.08216402 61.47492317 0.09924065 70.10838318 0.12025452 C64.73468615 14.62638898 59.21083849 29.05833919 53.42781067 43.40614319 C51.26145865 48.78219876 49.10547542 54.16241602 46.94822693 59.54212952 C46.4845723 60.69785461 46.02091766 61.85357971 45.54321289 63.04432678 C39.88034787 77.16819814 34.26751223 91.31191836 28.65487671 105.45580673 C27.51215978 108.33516618 26.36898881 111.21434527 25.2258358 114.09353161 C19.52058211 128.46355289 13.82283303 142.83650729 8.1394825 157.21520615 C6.52418494 161.30115028 4.90765076 165.38660539 3.29113293 169.47206688 C2.01550757 172.69648215 0.74097368 175.9213208 -0.53117371 179.14710999 C-1.92251218 182.67420728 -3.31689483 186.20008654 -4.71192932 189.72572327 C-5.33017326 191.29697212 -5.33017326 191.29697212 -5.96090698 192.89996338 C-6.33523361 193.8443074 -6.70956024 194.78865143 -7.0952301 195.76161194 C-7.42016449 196.58465317 -7.74509888 197.4076944 -8.07987976 198.25567627 C-8.89161682 200.12025452 -8.89161682 200.12025452 -9.89161682 201.12025452 C-12.13091568 201.21461981 -14.37323432 201.23767779 -16.61451721 201.23377991 C-17.31692032 201.23392593 -18.01932343 201.23407196 -18.74301147 201.23422241 C-21.07512961 201.23352324 -23.40716882 201.22573069 -25.73927307 201.21791077 C-27.3521012 201.2160466 -28.96492989 201.21462269 -30.57775879 201.21362305 C-34.83077039 201.20979775 -39.08374806 201.19996737 -43.33674622 201.18891907 C-47.67339112 201.1787052 -52.01004149 201.17412548 -56.34669495 201.16908264 C-64.86168451 201.1583451 -73.37664645 201.14126855 -81.89161682 201.12025452 C-81.34001192 196.2202507 -80.29821424 192.08657583 -78.45265198 187.51991272 C-78.20268526 186.89513062 -77.95271854 186.27034853 -77.69517708 185.62663364 C-76.86429719 183.55508547 -76.02248932 181.4881637 -75.18067932 179.42103577 C-74.58289611 177.93647115 -73.98584802 176.45161035 -73.38948059 174.96647644 C-72.11021827 171.78473397 -70.8262588 168.60494506 -69.53852844 165.42662048 C-67.49364476 160.37914035 -65.45935816 155.32743499 -63.42726135 150.27479553 C-62.73437343 148.55224059 -62.04147175 146.82969117 -61.34855652 145.10714722 C-61.00338612 144.24904764 -60.65821571 143.39094807 -60.3025856 142.50684547 C-59.24494158 139.87865749 -58.18626258 137.25088858 -57.12730408 134.62322998 C-50.84591262 119.03344178 -44.63425651 103.4164773 -38.44374084 87.79042053 C-35.68984272 80.83925564 -32.93120019 73.88997283 -30.17286682 66.94056702 C-29.90867699 66.27490471 -29.64448715 65.6092424 -29.37229156 64.92340851 C-24.12274569 51.69678985 -18.86709006 38.47262678 -13.59236145 25.25602722 C-12.71624173 23.05983898 -11.84102185 20.86329152 -10.9667511 18.66636658 C-9.78532965 15.69817699 -8.60068554 12.73129578 -7.41505432 9.76478577 C-7.06857849 8.89244293 -6.72210266 8.0201001 -6.36512756 7.12132263 C-3.57073303 0.14849712 -3.57073303 0.14849712 0 0 Z " fill="#B2F0FE" transform="translate(232.89161682128906,280.87974548339844)"/>
<path d="M0 0 C2.375 0.3125 2.375 0.3125 5 1 C7.43409028 4.65113541 7.2880993 7.35731213 7.27415466 11.57821655 C7.27939134 12.3572105 7.28462802 13.13620445 7.29002339 13.93880427 C7.30506334 16.55739885 7.30572941 19.17579873 7.30639648 21.79443359 C7.31401527 23.66851635 7.32244228 25.54259598 7.33161926 27.41667175 C7.35359839 32.5137807 7.3623677 37.61082965 7.36744571 42.70798063 C7.37108513 45.89089517 7.377323 49.0737939 7.3844471 52.25670242 C7.40895306 63.35636335 7.42199606 74.45597746 7.42553711 85.55566406 C7.4291737 95.90937072 7.45907502 106.26278117 7.50094169 116.61639726 C7.53560629 125.49969992 7.55108488 134.38290423 7.55178314 143.26627409 C7.55257724 148.57451459 7.56137679 153.88245349 7.58978081 159.19062424 C7.61589593 164.1828102 7.61820337 169.17444313 7.60212517 174.16666603 C7.60030547 175.99967082 7.60704822 177.83270693 7.62294388 179.66564369 C7.64331519 182.16702698 7.63290703 184.66645895 7.61473083 187.16781616 C7.6279308 187.89437672 7.64113077 188.62093728 7.65473074 189.36951482 C7.59088344 193.21242362 7.08723283 194.88846058 4.69135094 197.95193195 C1.15839651 200.64044462 -1.73772944 200.67132425 -6.00317383 200.56762695 C-7.18932785 200.56872215 -7.18932785 200.56872215 -8.39944458 200.56983948 C-11.00268115 200.56636721 -13.60410889 200.5275257 -16.20703125 200.48828125 C-18.01591515 200.47895178 -19.82481171 200.4718363 -21.63371277 200.46684265 C-26.38678072 200.44778331 -31.13908053 200.39869187 -35.8918457 200.34332275 C-40.74484873 200.2921072 -45.59797629 200.2693237 -50.45117188 200.24414062 C-59.96778477 200.19057195 -69.48382842 200.10527214 -79 200 C-77.12417436 194.22958575 -75.11547408 188.53922557 -72.90136719 182.89038086 C-72.60466881 182.12868402 -72.30797043 181.36698719 -72.00228119 180.58220863 C-71.0197598 178.06289048 -70.03355963 175.54503406 -69.046875 173.02734375 C-68.70063835 172.14194349 -68.3544017 171.25654324 -67.99767303 170.34431267 C-59.2956657 148.09516252 -50.41351663 125.91797242 -41.5246582 103.74298096 C-39.41363605 98.47563497 -37.3045345 93.20752015 -35.1953125 87.93945312 C-32.26316308 80.6164555 -29.33041298 73.29369904 -26.39687347 65.97125816 C-20.50443253 51.26276281 -14.61847033 36.5516795 -8.734375 21.83984375 C-8.06798382 20.17369113 -8.06798382 20.17369113 -7.38813019 18.47387886 C-4.92526823 12.31597998 -2.46254527 6.15802553 0 0 Z " fill="#B1F0FE" transform="translate(361,281)"/>
<path d="M0 0 C0.71274078 -0.00073013 1.42548157 -0.00146027 2.15982056 -0.00221252 C4.50341297 0.0012565 6.84498959 0.04007988 9.18823242 0.0793457 C10.81775324 0.0886764 12.44728812 0.0957913 14.076828 0.1007843 C18.35646597 0.11983426 22.63524941 0.16891679 26.91455078 0.2243042 C31.28495729 0.27554051 35.65550248 0.29830763 40.02612305 0.32348633 C48.59487366 0.37703839 57.16293098 0.46232575 65.73120117 0.56762695 C60.94049479 13.56174449 55.8543954 26.43127277 50.72338867 39.29418945 C49.84312843 41.50427227 48.96299961 43.71440743 48.08299255 45.92459106 C45.74175885 51.80345914 43.39847972 57.68150982 41.05472183 63.55937195 C39.11766364 68.41800224 37.18180809 73.27711132 35.2459383 78.13621521 C19.77764369 116.96132587 4.27605215 155.77310448 -11.26879883 194.56762695 C-11.59879883 194.56762695 -11.92879883 194.56762695 -12.26879883 194.56762695 C-12.38554414 170.01150059 -12.47374394 145.45541576 -12.52785969 120.89906788 C-12.55365323 109.49739626 -12.58882589 98.09589696 -12.64599609 86.69433594 C-12.69579565 76.75798879 -12.72808147 66.82176643 -12.7392413 56.88529795 C-12.74576587 51.62281041 -12.76112456 46.36067989 -12.79744911 41.09830666 C-12.83135398 36.14641734 -12.84186288 31.19503254 -12.83433723 26.24303818 C-12.83571424 24.42453331 -12.84567954 22.60601179 -12.8648262 20.78760719 C-12.88967902 18.3058066 -12.88373363 15.82591452 -12.87007141 13.34407043 C-12.88463562 12.62324541 -12.89919983 11.90242039 -12.91420537 11.15975219 C-12.85693134 7.3148223 -12.35366143 5.67516266 -9.94200897 2.61917877 C-6.44356143 -0.06570046 -4.38182892 -0.03783963 0 0 Z " fill="#1BB5FE" transform="translate(157.268798828125,29.432373046875)"/>
<path d="M0 0 C7.15324916 -0.60620756 7.15324916 -0.60620756 10.57910156 1.84643555 C14.08020596 6.40712186 13.88625552 10.32424378 13.97265625 15.9453125 C13.99874969 17.04249603 14.02484314 18.13967957 14.05172729 19.27011108 C14.10519801 22.89019565 14.09563417 26.50469921 14.0625 30.125 C14.0486174 31.99176392 14.0486174 31.99176392 14.03445435 33.89624023 C13.60332427 60.65580225 5.67837262 82.17701019 -5.37890625 106.21337891 C-8.92328596 113.95128801 -12.02212986 121.85331442 -15.11737061 129.77877808 C-16.68091497 133.76356958 -18.2845753 137.73215434 -19.8828125 141.703125 C-23.00937907 149.49434693 -26.09910997 157.29986816 -29.1796875 165.109375 C-29.83670906 166.77405571 -29.83670906 166.77405571 -30.50700378 168.47236633 C-32.66496145 173.94081279 -34.82001662 179.41037764 -36.97094727 184.8815918 C-37.75006017 186.85729957 -38.52927063 188.83296888 -39.30859375 190.80859375 C-39.84799088 192.18510101 -39.84799088 192.18510101 -40.39828491 193.5894165 C-40.72761017 194.42285583 -41.05693542 195.25629517 -41.39624023 196.11499023 C-41.6832933 196.84483627 -41.97034637 197.57468231 -42.26609802 198.3266449 C-43 200 -43 200 -44 201 C-46.6662603 201.08855161 -49.30647114 201.11524673 -51.97265625 201.09765625 C-52.77029892 201.0962413 -53.56794159 201.09482635 -54.38975525 201.09336853 C-56.94737435 201.08775316 -59.50490718 201.07519812 -62.0625 201.0625 C-63.79231645 201.05748698 -65.52213426 201.05292373 -67.25195312 201.04882812 C-71.50133553 201.03777875 -75.75065312 201.02050386 -80 201 C-78.14214932 194.47394377 -76.0062211 188.16611816 -73.45117188 181.88208008 C-73.10637787 181.02381496 -72.76158386 180.16554985 -72.40634155 179.2812767 C-71.26463595 176.44233372 -70.11670557 173.6059521 -68.96875 170.76953125 C-68.14825095 168.732818 -67.3281518 166.69594361 -66.50842285 164.65892029 C-64.30169134 159.17825421 -62.08963665 153.69975121 -59.87658691 148.22163391 C-57.57343055 142.51783972 -55.27516862 136.8120744 -52.9765625 131.10644531 C-49.67142853 122.90353452 -46.36477899 114.7012378 -43.05622864 106.49970436 C-37.20402639 91.99231483 -31.36434362 77.47992576 -25.53125 62.96484375 C-24.70871127 60.91831499 -23.88616096 58.87179088 -23.06359863 56.82527161 C-18.95338036 46.59892519 -18.95338036 46.59892519 -14.84365845 36.3723793 C-12.6653849 30.95167225 -10.48638881 25.53125702 -8.30613708 20.11134529 C-7.65028119 18.4805321 -6.99472684 16.84959761 -6.3394928 15.21853447 C-5.45235933 13.01028774 -4.5642054 10.80245427 -3.67578125 8.59472656 C-3.41642036 7.94841687 -3.15705948 7.30210718 -2.88983917 6.63621235 C-1.98442003 4.38863305 -1.08415272 2.16830544 0 0 Z " fill="#B1F0FE" transform="translate(355,30)"/>
<path d="M0 0 C0.33 0 0.66 0 1 0 C1.11683006 15.429218 1.20498648 30.8584029 1.25906086 46.2879591 C1.28483663 53.45229572 1.31997456 60.61635742 1.37719727 67.78051758 C1.42705218 74.02522555 1.4592956 80.26973441 1.47044247 86.51463586 C1.476958 89.82105277 1.49488214 93.12676764 1.52865028 96.4330349 C1.56486542 100.12521733 1.56994819 103.8162139 1.56762695 107.50854492 C1.58560333 108.60330643 1.60357971 109.69806793 1.62210083 110.82600403 C1.57190854 118.18805492 1.57190854 118.18805492 -1.24182129 122.18273926 C-4.09083187 124.05984572 -5.34519675 124.61485638 -8.69848633 124.56762695 C-9.59904251 124.5672493 -10.49959869 124.56687164 -11.42744446 124.56648254 C-12.3859581 124.54067612 -13.34447174 124.51486969 -14.33203125 124.48828125 C-15.81965218 124.47766914 -15.81965218 124.47766914 -17.33732605 124.46684265 C-20.49649342 124.43891433 -23.65387082 124.3761772 -26.8125 124.3125 C-28.95765665 124.28741518 -31.10284115 124.26460234 -33.24804688 124.24414062 C-38.49930584 124.18909327 -43.74952503 124.1054831 -49 124 C-40.27980712 100.57921843 -31.02631492 77.380293 -21.71673584 54.18884277 C-19.77601343 49.35258429 -17.83833717 44.51510568 -15.90039062 39.67773438 C-12.76197536 31.84477817 -9.62137485 24.01270175 -6.47921085 16.18124866 C-4.31589345 10.78892974 -2.15556355 5.39542398 0 0 Z " fill="#1CB5FE" transform="translate(367,357)"/>
</svg>
